0
SECTION
2
HEADER
9
$INSUNITS
70
4
9
$ACADVER
1
AC1014
9
$HANDSEED
5
FFFF
0
ENDSEC
0
SECTION
2
TABLES
0
TABLE
2
VPORT
5
8
100
AcDbSymbolTable
0
ENDTAB
0
TABLE
2
LTYPE
5
5
100
AcDbSymbolTable
0
LTYPE
5
14
100
AcDbSymbolTableRecord
100
AcDbLinetypeTableRecord
2
BYBLOCK
70
0
0
LTYPE
5
15
100
AcDbSymbolTableRecord
100
AcDbLinetypeTableRecord
2
BYLAYER
70
0
0
ENDTAB
0
TABLE
2
LAYER
5
2
100
AcDbSymbolTable
70
2
0
LAYER
5
50
100
AcDbSymbolTableRecord
100
AcDbLayerTableRecord
2
0
70
0
6
CONTINUOUS
0
ENDTAB
0
TABLE
2
STYLE
5
3
100
AcDbSymbolTable
70
1
0
STYLE
5
11
100
AcDbSymbolTableRecord
100
AcDbTextStyleTableRecord
2
STANDARD
70
0
0
ENDTAB
0
TABLE
2
VIEW
5
6
100
AcDbSymbolTable
70
0
0
ENDTAB
0
TABLE
2
UCS
5
7
100
AcDbSymbolTable
70
0
0
ENDTAB
0
TABLE
2
APPID
5
9
100
AcDbSymbolTable
70
2
0
APPID
5
12
100
AcDbSymbolTableRecord
100
AcDbRegAppTableRecord
2
ACAD
70
0
0
ENDTAB
0
TABLE
2
DIMSTYLE
5
A
100
AcDbSymbolTable
70
1
0
ENDTAB
0
TABLE
2
BLOCK_RECORD
5
1
100
AcDbSymbolTable
70
1
0
BLOCK_RECORD
5
1F
100
AcDbSymbolTableRecord
100
AcDbBlockTableRecord
2
*MODEL_SPACE
0
BLOCK_RECORD
5
1B
100
AcDbSymbolTableRecord
100
AcDbBlockTableRecord
2
*PAPER_SPACE
0
ENDTAB
0
ENDSEC
0
SECTION
2
BLOCKS
0
BLOCK
5
20
100
AcDbEntity
100
AcDbBlockBegin
2
*MODEL_SPACE
0
ENDBLK
5
21
100
AcDbEntity
100
AcDbBlockEnd
0
BLOCK
5
1C
100
AcDbEntity
100
AcDbBlockBegin
2
*PAPER_SPACE
0
ENDBLK
5
1D
100
AcDbEntity
100
AcDbBlockEnd
0
ENDSEC
0
SECTION
2
ENTITIES
0
LINE
5
100
100
AcDbEntity
8
0
100
AcDbLine
10
91.050000000000011
20
159
30
0
11
87.049999999999997
21
159
31
0
0
ARC
5
101
100
AcDbEntity
8
0
100
AcDbCircle
10
43.050000000000054
20
221
30
0
40
2.9999999999999716
210
0
220
-0
230
1
100
AcDbArc
50
90
51
180
0
LINE
5
102
100
AcDbEntity
8
0
100
AcDbLine
10
91.050000000000011
20
171.30000000000001
30
0
11
92.099999999999994
21
170.30000000000001
31
0
0
LINE
5
103
100
AcDbEntity
8
0
100
AcDbLine
10
57.049999999999997
20
158.00000000000003
30
0
11
57.049999999999997
21
189.00000000000003
31
0
0
ARC
5
104
100
AcDbEntity
8
0
100
AcDbCircle
10
53.050000000000033
20
158.00000000000003
30
0
40
0.99999999999999645
210
0
220
0
230
1
100
AcDbArc
50
180
51
270
0
LWPOLYLINE
5
105
100
AcDbEntity
8
0
100
AcDbPolyline
90
8
70
1
43
0.0
10
40.050000000000026
20
152
42
0.4142135623730937
10
39.05000000000004
20
153.00000000000003
10
36.049999999999997
20
153.00000000000003
42
0.41421356237309892
10
35.04999999999999
20
152.00000000000003
10
35.049999999999997
20
39.999999999999993
42
0.41421356237309759
10
36.049999999999997
20
39
10
39.050000000000004
20
38.999999999999993
42
0.41421356237309109
10
40.050000000000011
20
39.999999999999993
0
ARC
5
106
100
AcDbEntity
8
0
100
AcDbCircle
10
36.050000000000011
20
33.999999999999986
30
0
40
1.0000000000000142
210
0
220
0
230
1
100
AcDbArc
50
90.00000000000081
51
180
0
ARC
5
107
100
AcDbEntity
8
0
100
AcDbCircle
10
39.049999999999997
20
33.999999999999993
30
0
40
1.0000000000000098
210
0
220
-0
230
1
100
AcDbArc
50
0
51
89.999999999999588
0
LINE
5
108
100
AcDbEntity
8
0
100
AcDbLine
10
1.05
20
174.00000000000003
30
0
11
1.05
21
171.30000000000001
31
0
0
LINE
5
109
100
AcDbEntity
8
0
100
AcDbLine
10
40.049999999999997
20
2.9999999999999893
30
0
11
40.050000000000011
21
34
31
0
0
ARC
5
110
100
AcDbEntity
8
0
100
AcDbCircle
10
60.049999999999997
20
189.00000000000003
30
0
40
3.0000000000000071
210
0
220
-0
230
1
100
AcDbArc
50
90
51
180
0
ARC
5
111
100
AcDbEntity
8
0
100
AcDbCircle
10
8.0500000000000007
20
189.00000000000003
30
0
40
3.0000000000000071
210
0
220
-0
230
1
100
AcDbArc
50
90
51
180
0
LWPOLYLINE
5
112
100
AcDbEntity
8
0
100
AcDbPolyline
90
8
70
1
43
0.0
10
57.050000000000011
20
152.00000000000003
42
0.41421356237309759
10
56.050000000000004
20
153.00000000000003
10
53.050000000000033
20
153.00000000000003
42
0.41421356237309759
10
52.050000000000026
20
152.00000000000003
10
52.050000000000018
20
39.999999999999986
42
0.4142135623731002
10
53.050000000000011
20
38.999999999999986
10
56.050000000000026
20
38.999999999999986
42
0.4142135623731002
10
57.050000000000018
20
39.999999999999986
0
LINE
5
113
100
AcDbEntity
8
0
100
AcDbLine
10
8.0500000000000007
20
0
30
0
11
32.049999999999997
21
0
31
0
0
ARC
5
114
100
AcDbEntity
8
0
100
AcDbCircle
10
39.05000000000004
20
158.00000000000003
30
0
40
0.99999999999999645
210
0
220
0
230
1
100
AcDbArc
50
-90.000000000000398
51
0
0
ARC
5
115
100
AcDbEntity
8
0
100
AcDbCircle
10
32.049999999999997
20
3.0000000000000004
30
0
40
3.0000000000000004
210
0
220
0
230
1
100
AcDbArc
50
-90
51
0
0
LINE
5
116
100
AcDbEntity
8
0
100
AcDbLine
10
52.050000000000011
20
2.9999999999999893
30
0
11
52.050000000000018
21
34
31
0
0
ARC
5
117
100
AcDbEntity
8
0
100
AcDbCircle
10
32.049999999999997
20
189.00000000000003
30
0
40
2.9999999999999982
210
0
220
0
230
1
100
AcDbArc
50
0
51
90
0
ARC
5
118
100
AcDbEntity
8
0
100
AcDbCircle
10
8.0500000000000007
20
3.0000000000000004
30
0
40
3.0000000000000018
210
0
220
0
230
1
100
AcDbArc
50
180
51
270
0
LINE
5
119
100
AcDbEntity
8
0
100
AcDbLine
10
5.0499999999999998
20
174.00000000000003
30
0
11
1.05
21
174.00000000000003
31
0
0
LINE
5
120
100
AcDbEntity
8
0
100
AcDbLine
10
52.05000000000004
20
158.00000000000003
30
0
11
52.050000000000054
21
221
31
0
0
LINE
5
121
100
AcDbEntity
8
0
100
AcDbLine
10
5.0499999999999998
20
189.00000000000003
30
0
11
5.0499999999999998
21
174.00000000000003
31
0
0
ARC
5
122
100
AcDbEntity
8
0
100
AcDbCircle
10
84.049999999999997
20
189.00000000000003
30
0
40
3.0000000000000071
210
0
220
0
230
1
100
AcDbArc
50
0
51
90
0
LINE
5
123
100
AcDbEntity
8
0
100
AcDbLine
10
1.05
20
161.69999999999999
30
0
11
1.05
21
159
31
0
0
LINE
5
124
100
AcDbEntity
8
0
100
AcDbLine
10
35.049999999999997
20
3.0000000000000004
30
0
11
35.049999999999997
21
33.999999999999993
31
0
0
LINE
5
125
100
AcDbEntity
8
0
100
AcDbLine
10
43.050000000000054
20
224
30
0
11
49.050000000000054
21
224
31
0
0
LINE
5
126
100
AcDbEntity
8
0
100
AcDbLine
10
91.050000000000011
20
159
30
0
11
91.050000000000011
21
161.69999999999999
31
0
0
LINE
5
127
100
AcDbEntity
8
0
100
AcDbLine
10
53.050000000000033
20
157.00000000000003
30
0
11
56.050000000000004
21
157.00000000000003
31
0
0
LINE
5
128
100
AcDbEntity
8
0
100
AcDbLine
10
32.049999999999997
20
192.00000000000003
30
0
11
8.0500000000000007
21
192.00000000000003
31
0
0
LINE
5
129
100
AcDbEntity
8
0
100
AcDbLine
10
36.049999999999997
20
35
30
0
11
39.050000000000004
21
35
31
0
0
LINE
5
130
100
AcDbEntity
8
0
100
AcDbLine
10
87.049999999999997
20
159
30
0
11
87.049999999999997
21
58.538800000000002
31
0
0
LINE
5
131
100
AcDbEntity
8
0
100
AcDbLine
10
89.7273
20
58.538800000000002
30
0
11
87.049999999999997
21
58.538800000000002
31
0
0
LINE
5
132
100
AcDbEntity
8
0
100
AcDbLine
10
49.050000000000004
20
-1.7763568394002505e-14
30
0
11
43.050000000000004
21
-1.7763568394002505e-14
31
0
0
LINE
5
133
100
AcDbEntity
8
0
100
AcDbLine
10
1.05
20
161.69999999999999
30
0
11
0
21
162.69999999999999
31
0
0
LINE
5
134
100
AcDbEntity
8
0
100
AcDbLine
10
1.05
20
159
30
0
11
5.0499999999999998
21
159
31
0
0
LINE
5
135
100
AcDbEntity
8
0
100
AcDbLine
10
1.05
20
171.30000000000001
30
0
11
0
21
170.30000000000001
31
0
0
ARC
5
136
100
AcDbEntity
8
0
100
AcDbCircle
10
36.049999999999997
20
158.00000000000003
30
0
40
0.99999999999999645
210
0
220
0
230
1
100
AcDbArc
50
180
51
270
0
LINE
5
137
100
AcDbEntity
8
0
100
AcDbLine
10
89.7273
20
58.538800000000002
30
0
11
89.7273
21
47.538800000000009
31
0
0
LINE
5
138
100
AcDbEntity
8
0
100
AcDbLine
10
5.0499999999999998
20
159
30
0
11
5.0499999999999998
21
3.0000000000000071
31
0
0
LINE
5
139
100
AcDbEntity
8
0
100
AcDbLine
10
91.050000000000011
20
171.30000000000001
30
0
11
91.050000000000011
21
174.00000000000003
31
0
0
LINE
5
140
100
AcDbEntity
8
0
100
AcDbLine
10
36.049999999999997
20
157.00000000000003
30
0
11
39.050000000000033
21
157.00000000000003
31
0
0
LINE
5
141
100
AcDbEntity
8
0
100
AcDbLine
10
0
20
162.69999999999999
30
0
11
0
21
170.30000000000001
31
0
0
LINE
5
142
100
AcDbEntity
8
0
100
AcDbLine
10
35.049999999999997
20
158.00000000000003
30
0
11
35.049999999999997
21
189.00000000000003
31
0
0
LINE
5
143
100
AcDbEntity
8
0
100
AcDbLine
10
40.050000000000033
20
158.00000000000003
30
0
11
40.050000000000033
21
221
31
0
0
LINE
5
144
100
AcDbEntity
8
0
100
AcDbLine
10
60.049999999999997
20
192.00000000000003
30
0
11
84.049999999999997
21
192.00000000000003
31
0
0
ARC
5
145
100
AcDbEntity
8
0
100
AcDbCircle
10
56.050000000000004
20
34.000000000000007
30
0
40
0.99999999999999645
210
-0
220
0
230
1
100
AcDbArc
50
0
51
90
0
ARC
5
146
100
AcDbEntity
8
0
100
AcDbCircle
10
43.050000000000004
20
2.9999999999999893
30
0
40
3.0000000000000071
210
0
220
0
230
1
100
AcDbArc
50
180
51
270
0
LINE
5
147
100
AcDbEntity
8
0
100
AcDbLine
10
87.049999999999997
20
189.00000000000003
30
0
11
87.049999999999997
21
174.00000000000003
31
0
0
ARC
5
148
100
AcDbEntity
8
0
100
AcDbCircle
10
49.050000000000054
20
221
30
0
40
2.9999999999999982
210
-0
220
0
230
1
100
AcDbArc
50
0
51
90
0
ARC
5
149
100
AcDbEntity
8
0
100
AcDbCircle
10
53.050000000000004
20
34.000000000000007
30
0
40
0.99999999999999201
210
0
220
-0
230
1
100
AcDbArc
50
89.999999999999588
51
180
0
LINE
5
150
100
AcDbEntity
8
0
100
AcDbLine
10
91.050000000000011
20
161.69999999999999
30
0
11
92.099999999999994
21
162.69999999999999
31
0
0
ARC
5
151
100
AcDbEntity
8
0
100
AcDbCircle
10
84.049999999999997
20
3.0000000000000004
30
0
40
3.0000000000000004
210
0
220
0
230
1
100
AcDbArc
50
270
51
360
0
ARC
5
152
100
AcDbEntity
8
0
100
AcDbCircle
10
56.050000000000004
20
158.00000000000003
30
0
40
0.99999999999999645
210
0
220
0
230
1
100
AcDbArc
50
-90
51
0
0
LINE
5
153
100
AcDbEntity
8
0
100
AcDbLine
10
57.049999999999997
20
3.0000000000000004
30
0
11
57.049999999999997
21
33.999999999999993
31
0
0
LINE
5
154
100
AcDbEntity
8
0
100
AcDbLine
10
92.099999999999994
20
162.69999999999999
30
0
11
92.099999999999994
21
170.30000000000001
31
0
0
LINE
5
155
100
AcDbEntity
8
0
100
AcDbLine
10
89.7273
20
47.538800000000009
30
0
11
87.049999999999997
21
47.538800000000009
31
0
0
ARC
5
156
100
AcDbEntity
8
0
100
AcDbCircle
10
60.049999999999997
20
3.0000000000000004
30
0
40
2.9999999999999982
210
0
220
0
230
1
100
AcDbArc
50
180
51
270
0
LINE
5
157
100
AcDbEntity
8
0
100
AcDbLine
10
87.049999999999997
20
47.538800000000009
30
0
11
87.049999999999997
21
2.9999999999999982
31
0
0
LINE
5
158
100
AcDbEntity
8
0
100
AcDbLine
10
53.050000000000011
20
35
30
0
11
56.050000000000004
21
35
31
0
0
LINE
5
159
100
AcDbEntity
8
0
100
AcDbLine
10
87.049999999999997
20
174.00000000000003
30
0
11
91.050000000000011
21
174.00000000000003
31
0
0
ARC
5
160
100
AcDbEntity
8
0
100
AcDbCircle
10
49.050000000000004
20
2.9999999999999893
30
0
40
3.0000000000000071
210
0
220
0
230
1
100
AcDbArc
50
-90
51
0
0
LINE
5
161
100
AcDbEntity
8
0
100
AcDbLine
10
84.049999999999997
20
0
30
0
11
60.049999999999997
21
0
31
0
0
ENDSEC
0
SECTION
2
OBJECTS
0
DICTIONARY
5
C
100
AcDbDictionary
3
ACAD_GROUP
350
D
3
ACAD_MLINESTYLE
350
17
0
DICTIONARY
5
D
100
AcDbDictionary
0
DICTIONARY
5
1A
330
C
100
AcDbDictionary
0
DICTIONARY
5
17
100
AcDbDictionary
0
ENDSEC
0
EOF
