0
SECTION
2
HEADER
9
$INSUNITS
70
4
9
$ACADVER
1
AC1014
9
$HANDSEED
5
FFFF
0
ENDSEC
0
SECTION
2
TABLES
0
TABLE
2
VPORT
5
8
100
AcDbSymbolTable
0
ENDTAB
0
TABLE
2
LTYPE
5
5
100
AcDbSymbolTable
0
LTYPE
5
14
100
AcDbSymbolTableRecord
100
AcDbLinetypeTableRecord
2
BYBLOCK
70
0
0
LTYPE
5
15
100
AcDbSymbolTableRecord
100
AcDbLinetypeTableRecord
2
BYLAYER
70
0
0
LTYPE
5
16
100
AcDbSymbolTableRecord
100
AcDbLinetypeTableRecord
2
DASHED
70
0
3
Dashed __ __ __ __ __ __ __ __ __ __ __ __ __ _
72
65
73
2
40
0.75
49
0.5
74
0
49
-0.25
74
0
0
ENDTAB
0
TABLE
2
LAYER
5
2
100
AcDbSymbolTable
70
3
0
LAYER
5
50
100
AcDbSymbolTableRecord
100
AcDbLayerTableRecord
2
1
70
0
62
7
6
DASHED
0
LAYER
5
51
100
AcDbSymbolTableRecord
100
AcDbLayerTableRecord
2
0
70
0
62
7
6
CONTINUOUS
0
ENDTAB
0
TABLE
2
STYLE
5
3
100
AcDbSymbolTable
70
1
0
STYLE
5
11
100
AcDbSymbolTableRecord
100
AcDbTextStyleTableRecord
2
STANDARD
70
0
0
ENDTAB
0
TABLE
2
VIEW
5
6
100
AcDbSymbolTable
70
0
0
ENDTAB
0
TABLE
2
UCS
5
7
100
AcDbSymbolTable
70
0
0
ENDTAB
0
TABLE
2
APPID
5
9
100
AcDbSymbolTable
70
2
0
APPID
5
12
100
AcDbSymbolTableRecord
100
AcDbRegAppTableRecord
2
ACAD
70
0
0
ENDTAB
0
TABLE
2
DIMSTYLE
5
A
100
AcDbSymbolTable
70
1
0
ENDTAB
0
TABLE
2
BLOCK_RECORD
5
1
100
AcDbSymbolTable
70
1
0
BLOCK_RECORD
5
1F
100
AcDbSymbolTableRecord
100
AcDbBlockTableRecord
2
*MODEL_SPACE
0
BLOCK_RECORD
5
1B
100
AcDbSymbolTableRecord
100
AcDbBlockTableRecord
2
*PAPER_SPACE
0
ENDTAB
0
ENDSEC
0
SECTION
2
BLOCKS
0
BLOCK
5
20
100
AcDbEntity
100
AcDbBlockBegin
2
*MODEL_SPACE
0
ENDBLK
5
21
100
AcDbEntity
100
AcDbBlockEnd
0
BLOCK
5
1C
100
AcDbEntity
100
AcDbBlockBegin
2
*PAPER_SPACE
0
ENDBLK
5
1D
100
AcDbEntity
100
AcDbBlockEnd
0
ENDSEC
0
SECTION
2
ENTITIES
0
POINT
5
100
100
AcDbEntity
8
0
100
AcDbPoint
10
0
20
0
30
0
0
POINT
5
101
100
AcDbEntity
8
0
100
AcDbPoint
10
0
20
0
30
0
0
POINT
5
102
100
AcDbEntity
8
0
100
AcDbPoint
10
0
20
0
30
0
0
POINT
5
103
100
AcDbEntity
8
0
100
AcDbPoint
10
0
20
0
30
0
0
POINT
5
104
100
AcDbEntity
8
0
100
AcDbPoint
10
0
20
0
30
0
0
POINT
5
105
100
AcDbEntity
8
0
100
AcDbPoint
10
0
20
0
30
0
0
LWPOLYLINE
5
106
100
AcDbEntity
8
0
100
AcDbPolyline
90
8
70
1
43
0.0
10
52.050000000000018
20
39.999999999999986
10
52.050000000000026
20
152.00000000000003
42
-0.41421356237309759
10
53.050000000000033
20
153.00000000000003
10
56.050000000000004
20
153.00000000000003
42
-0.41421356237309759
10
57.050000000000011
20
152.00000000000003
10
57.050000000000018
20
39.999999999999986
42
-0.4142135623731002
10
56.050000000000026
20
38.999999999999986
10
53.050000000000011
20
38.999999999999993
42
-0.4142135623731002
0
LWPOLYLINE
5
107
100
AcDbEntity
8
0
100
AcDbPolyline
90
8
70
1
43
0.0
10
26.300000000000004
20
149.70099999999999
10
26.299999999999997
20
148.10100000000003
42
-0.41421356237308726
10
25.800000000000004
20
147.601
10
25.300000000000004
20
147.601
42
-0.41421356237308982
10
24.800000000000004
20
148.10100000000003
10
24.800000000000004
20
149.70099999999999
42
-0.41421356237308982
10
25.300000000000004
20
150.20099999999999
10
25.800000000000004
20
150.20099999999999
42
-0.41421356237308726
0
LWPOLYLINE
5
108
100
AcDbEntity
8
0
100
AcDbPolyline
90
8
70
1
43
0.0
10
77.299999999999997
20
113.501
42
0.41421356237308982
10
76.799999999999997
20
113.001
10
76.799999999999997
20
111.40100000000001
42
0.41421356237308982
10
77.299999999999997
20
110.901
10
77.799999999999997
20
110.901
42
0.41421356237308982
10
78.299999999999997
20
111.40100000000001
10
78.299999999999997
20
113.001
42
0.41421356237308982
10
77.799999999999997
20
113.501
0
LWPOLYLINE
5
109
100
AcDbEntity
8
0
100
AcDbPolyline
90
8
70
1
43
0.0
10
13.800000000000001
20
148.10100000000003
10
13.800000000000004
20
149.70099999999999
42
-0.41421356237308982
10
14.300000000000001
20
150.20099999999999
10
14.800000000000002
20
150.20099999999999
42
-0.41421356237308854
10
15.299999999999997
20
149.70099999999999
10
15.299999999999997
20
148.10100000000003
42
-0.41421356237308854
10
14.800000000000002
20
147.601
10
14.300000000000001
20
147.601
42
-0.41421356237308982
0
LWPOLYLINE
5
110
100
AcDbEntity
8
0
100
AcDbPolyline
90
8
70
1
43
0.0
10
66.299999999999997
20
113.501
10
66.800000000000011
20
113.501
42
-0.41421356237308982
10
67.300000000000011
20
113.001
10
67.300000000000011
20
111.40100000000001
42
-0.41421356237308982
10
66.800000000000011
20
110.901
10
66.299999999999997
20
110.901
42
-0.41421356237308982
10
65.799999999999997
20
111.40100000000001
10
65.799999999999997
20
113.001
42
-0.41421356237308982
0
LWPOLYLINE
5
111
100
AcDbEntity
8
0
100
AcDbPolyline
90
8
70
1
43
0.0
10
20.850000000000005
20
3.7499999999999991
42
0.4142135623730967
10
21.350000000000001
20
4.25
10
21.350000000000001
20
4.7500000000000009
42
0.4142135623730967
10
20.850000000000005
20
5.2500000000000018
10
19.25
20
5.2500000000000018
42
0.41421356237309243
10
18.75
20
4.75
10
18.75
20
4.25
42
0.41421356237309243
10
19.25
20
3.75
0
LWPOLYLINE
5
112
100
AcDbEntity
8
0
100
AcDbPolyline
90
8
70
1
43
0.0
10
21.125000000000004
20
176.20100000000002
10
21.125000000000007
20
175.15100000000004
42
-0.41421356237309243
10
20.625000000000004
20
174.65100000000004
10
19.475000000000001
20
174.65100000000004
42
-0.41421356237309759
10
18.975000000000001
20
175.15100000000004
10
18.974999999999991
20
176.20100000000002
42
-0.41421356237309759
10
19.475000000000001
20
176.70100000000002
10
20.625000000000004
20
176.70100000000002
42
-0.41421356237309243
0
LWPOLYLINE
5
113
100
AcDbEntity
8
0
100
AcDbPolyline
90
8
70
1
43
0.0
10
40.050000000000026
20
152
42
0.4142135623730937
10
39.05000000000004
20
153.00000000000003
10
36.049999999999997
20
153.00000000000003
42
0.41421356237309892
10
35.04999999999999
20
152.00000000000003
10
35.049999999999997
20
39.999999999999993
42
0.41421356237309759
10
36.049999999999997
20
39
10
39.050000000000004
20
38.999999999999993
42
0.41421356237309109
10
40.050000000000011
20
39.999999999999993
0
LWPOLYLINE
5
114
100
AcDbEntity
8
0
100
AcDbPolyline
90
8
70
1
43
0.0
10
21.125000000000004
20
119.95099999999999
10
21.125
20
118.90100000000001
42
-0.41421356237308726
10
20.625000000000004
20
118.401
10
19.475000000000001
20
118.401
42
-0.41421356237308982
10
18.975000000000001
20
118.90100000000001
10
18.975000000000005
20
119.95100000000001
42
-0.41421356237305862
10
19.475000000000001
20
120.45099999999999
10
20.625000000000004
20
120.45099999999999
42
-0.41421356237306645
0
CIRCLE
5
115
100
AcDbEntity
8
0
100
AcDbCircle
10
20.050000000000004
20
99.944600000000008
30
0
40
1.1499999999999999
210
0
220
0
230
1
0
CIRCLE
5
116
100
AcDbEntity
8
0
100
AcDbCircle
10
42.050000000000018
20
58.629999999999981
30
0
40
1.1499999999999999
210
0
220
0
230
1
0
LWPOLYLINE
5
117
100
AcDbEntity
8
0
100
AcDbPolyline
90
8
70
1
43
0.0
10
18.75
20
15.250000000000002
10
18.75
20
15.75
42
-0.41421356237308982
10
19.25
20
16.25
10
20.850000000000005
20
16.249999999999996
42
-0.4142135623731002
10
21.350000000000001
20
15.75
10
21.350000000000009
20
15.250000000000002
42
-0.4142135623731002
10
20.850000000000005
20
14.75
10
19.25
20
14.75
42
-0.41421356237308982
0
CIRCLE
5
118
100
AcDbEntity
8
0
100
AcDbCircle
10
20.050000000000004
20
99.944600000000008
30
0
40
1.1499999999999999
210
0
220
0
230
1
0
CIRCLE
5
119
100
AcDbEntity
8
0
100
AcDbCircle
10
42.050000000000018
20
58.629999999999981
30
0
40
1.1499999999999999
210
0
220
0
230
1
0
LWPOLYLINE
5
120
100
AcDbEntity
8
0
100
AcDbPolyline
90
8
70
1
43
0.0
10
19.475000000000001
20
109.20099999999999
42
0.414213562373069
10
18.975000000000001
20
108.70099999999999
10
18.975000000000001
20
107.65100000000001
42
0.41421356237308982
10
19.475000000000001
20
107.151
10
20.625000000000004
20
107.151
42
0.41421356237308726
10
21.125000000000004
20
107.65100000000001
10
21.125000000000004
20
108.70099999999999
42
0.41421356237306645
10
20.625000000000004
20
109.20099999999999
0
CIRCLE
5
121
100
AcDbEntity
8
0
100
AcDbCircle
10
42.05000000000004
20
165.37
30
0
40
1.1499999999999999
210
0
220
0
230
1
0
CIRCLE
5
122
100
AcDbEntity
8
0
100
AcDbCircle
10
42.050000000000026
20
111.99999999999997
30
0
40
1.1499999999999999
210
0
220
0
230
1
0
CIRCLE
5
123
100
AcDbEntity
8
0
100
AcDbCircle
10
42.050000000000026
20
111.99999999999997
30
0
40
1.1499999999999999
210
0
220
0
230
1
0
CIRCLE
5
124
100
AcDbEntity
8
0
100
AcDbCircle
10
8.0500000000000007
20
131.1927
30
0
40
1.1499999999999999
210
0
220
0
230
1
0
LWPOLYLINE
5
125
100
AcDbEntity
8
0
100
AcDbPolyline
90
8
70
1
43
0.0
10
65.799999999999997
20
148.10100000000003
42
0.41421356237308982
10
66.299999999999997
20
147.601
10
66.800000000000011
20
147.601
42
0.41421356237308982
10
67.300000000000011
20
148.10100000000003
10
67.300000000000011
20
149.70099999999999
42
0.41421356237308982
10
66.800000000000011
20
150.20099999999999
10
66.299999999999997
20
150.20099999999999
42
0.41421356237308982
10
65.799999999999997
20
149.70099999999999
0
CIRCLE
5
126
100
AcDbEntity
8
0
100
AcDbCircle
10
8.0500000000000007
20
3.0000000000000004
30
0
40
1.1499999999999999
210
0
220
0
230
1
0
CIRCLE
5
127
100
AcDbEntity
8
0
100
AcDbCircle
10
72.049999999999997
20
95.300799999999995
30
0
40
1.1499999999999999
210
0
220
0
230
1
0
LWPOLYLINE
5
128
100
AcDbEntity
8
0
100
AcDbPolyline
90
8
70
1
43
0.0
10
70.974999999999994
20
175.05000000000001
42
0.41421356237312101
10
71.474999999999994
20
174.54999999999998
10
72.625
20
174.55000000000001
42
0.41421356237312101
10
73.124999999999972
20
175.05000000000001
10
73.124999999999972
20
176.10000000000002
42
0.41421356237313145
10
72.625000000000014
20
176.59999999999999
10
71.474999999999994
20
176.60000000000002
42
0.41421356237312101
10
70.974999999999994
20
176.09999999999999
0
CIRCLE
5
129
100
AcDbEntity
8
0
100
AcDbCircle
10
42.05000000000004
20
165.37
30
0
40
1.1499999999999999
210
0
220
0
230
1
0
CIRCLE
5
130
100
AcDbEntity
8
0
100
AcDbCircle
10
68.25
20
76.900999999999996
30
0
40
0.55000000000000004
210
0
220
0
230
1
0
CIRCLE
5
131
100
AcDbEntity
8
0
100
AcDbCircle
10
84.049999999999997
20
131.1927
30
0
40
1.1499999999999999
210
0
220
0
230
1
0
CIRCLE
5
132
100
AcDbEntity
8
0
100
AcDbCircle
10
3.4000000000000004
20
164.60000000000002
30
0
40
0.55000000000000004
210
0
220
0
230
1
0
CIRCLE
5
133
100
AcDbEntity
8
0
100
AcDbCircle
10
84.049999999999997
20
65.675700000000006
30
0
40
1.1499999999999999
210
0
220
0
230
1
0
CIRCLE
5
134
100
AcDbEntity
8
0
100
AcDbCircle
10
84.049999999999997
20
65.675700000000006
30
0
40
1.1499999999999999
210
0
220
0
230
1
0
LWPOLYLINE
5
135
100
AcDbEntity
8
0
100
AcDbPolyline
90
8
70
1
43
0.0
10
21.125000000000004
20
187.45100000000002
42
0.41421356237309243
10
20.625000000000004
20
187.95100000000002
10
19.475000000000001
20
187.95100000000002
42
0.41421356237309759
10
18.975000000000001
20
187.45100000000002
10
18.975000000000001
20
186.40100000000004
42
0.41421356237309759
10
19.475000000000001
20
185.90100000000004
10
20.625000000000004
20
185.90100000000004
42
0.41421356237309243
10
21.125000000000004
20
186.40100000000004
0
CIRCLE
5
136
100
AcDbEntity
8
0
100
AcDbCircle
10
84.049999999999997
20
131.1927
30
0
40
1.1499999999999999
210
0
220
0
230
1
0
CIRCLE
5
137
100
AcDbEntity
8
0
100
AcDbCircle
10
46.050000000000004
20
2.9999999999999893
30
0
40
1.1499999999999999
210
0
220
0
230
1
0
CIRCLE
5
138
100
AcDbEntity
8
0
100
AcDbCircle
10
32.049999999999997
20
3.0000000000000004
30
0
40
1.1499999999999999
210
0
220
0
230
1
0
CIRCLE
5
139
100
AcDbEntity
8
0
100
AcDbCircle
10
46.050000000000047
20
221
30
0
40
1.1499999999999999
210
0
220
0
230
1
0
CIRCLE
5
140
100
AcDbEntity
8
0
100
AcDbCircle
10
88.75
20
168.40000000000001
30
0
40
0.55000000000000004
210
0
220
0
230
1
0
CIRCLE
5
141
100
AcDbEntity
8
0
100
AcDbCircle
10
46.050000000000047
20
221
30
0
40
1.1499999999999999
210
0
220
0
230
1
0
CIRCLE
5
142
100
AcDbEntity
8
0
100
AcDbCircle
10
32.049999999999997
20
3.0000000000000004
30
0
40
1.1499999999999999
210
0
220
0
230
1
0
LWPOLYLINE
5
143
100
AcDbEntity
8
0
100
AcDbPolyline
90
8
70
1
43
0.0
10
76.799999999999997
20
148.10100000000003
10
76.799999999999997
20
149.70099999999999
42
-0.41421356237308982
10
77.299999999999997
20
150.20099999999999
10
77.799999999999997
20
150.20099999999999
42
-0.41421356237308982
10
78.299999999999997
20
149.70099999999999
10
78.299999999999997
20
148.10100000000003
42
-0.41421356237308982
10
77.799999999999997
20
147.601
10
77.299999999999997
20
147.601
42
-0.41421356237308982
0
CIRCLE
5
144
100
AcDbEntity
8
0
100
AcDbCircle
10
8.0500000000000007
20
189.00000000000003
30
0
40
1.1499999999999999
210
0
220
0
230
1
0
CIRCLE
5
145
100
AcDbEntity
8
0
100
AcDbCircle
10
46.050000000000004
20
2.9999999999999893
30
0
40
1.1499999999999999
210
0
220
0
230
1
0
CIRCLE
5
146
100
AcDbEntity
8
0
100
AcDbCircle
10
8.0500000000000007
20
189.00000000000003
30
0
40
1.1499999999999999
210
0
220
0
230
1
0
CIRCLE
5
147
100
AcDbEntity
8
0
100
AcDbCircle
10
8.0500000000000007
20
3.0000000000000004
30
0
40
1.1499999999999999
210
0
220
0
230
1
0
CIRCLE
5
148
100
AcDbEntity
8
0
100
AcDbCircle
10
88.75
20
164.60000000000002
30
0
40
0.55000000000000004
210
0
220
0
230
1
0
LWPOLYLINE
5
149
100
AcDbEntity
8
0
100
AcDbPolyline
90
8
70
1
43
0.0
10
73.124999999999972
20
187.35000000000002
42
0.41421356237313145
10
72.625000000000014
20
187.84999999999999
10
71.474999999999994
20
187.85000000000002
42
0.41421356237312101
10
70.974999999999994
20
187.34999999999999
10
70.974999999999994
20
186.29999999999998
42
0.41421356237313145
10
71.474999999999994
20
185.79999999999998
10
72.625
20
185.79999999999998
42
0.41421356237312101
10
73.124999999999986
20
186.30000000000001
0
LWPOLYLINE
5
150
100
AcDbEntity
8
0
100
AcDbPolyline
90
8
70
1
43
0.0
10
71.25
20
16.250000000000004
42
0.41421356237309892
10
70.75
20
15.75
10
70.750000000000014
20
15.250000000000002
42
0.41421356237309892
10
71.25
20
14.75
10
72.849999999999994
20
14.75
42
0.41421356237309892
10
73.349999999999994
20
15.250000000000002
10
73.349999999999994
20
15.750000000000002
42
0.41421356237309759
10
72.849999999999994
20
16.250000000000004
0
CIRCLE
5
151
100
AcDbEntity
8
0
100
AcDbCircle
10
72.049999999999997
20
95.300799999999995
30
0
40
1.1499999999999999
210
0
220
0
230
1
0
CIRCLE
5
152
100
AcDbEntity
8
0
100
AcDbCircle
10
3.4000000000000004
20
168.40000000000001
30
0
40
0.55000000000000004
210
0
220
0
230
1
0
CIRCLE
5
153
100
AcDbEntity
8
0
100
AcDbCircle
10
8.0500000000000007
20
131.1927
30
0
40
1.1499999999999999
210
0
220
0
230
1
0
CIRCLE
5
154
100
AcDbEntity
8
0
100
AcDbCircle
10
84.049999999999997
20
189.00000000000003
30
0
40
1.1499999999999999
210
0
220
0
230
1
0
CIRCLE
5
155
100
AcDbEntity
8
0
100
AcDbCircle
10
84.049999999999997
20
189.00000000000003
30
0
40
1.1499999999999999
210
0
220
0
230
1
0
CIRCLE
5
156
100
AcDbEntity
8
0
100
AcDbCircle
10
60.049999999999997
20
3.0000000000000004
30
0
40
1.1499999999999999
210
0
220
0
230
1
0
CIRCLE
5
157
100
AcDbEntity
8
0
100
AcDbCircle
10
60.049999999999997
20
3.0000000000000004
30
0
40
1.1499999999999999
210
0
220
0
230
1
0
LWPOLYLINE
5
158
100
AcDbEntity
8
0
100
AcDbPolyline
90
8
70
1
43
0.0
10
73.349999999999994
20
4.7500000000000009
10
73.349999999999994
20
4.25
42
-0.41421356237309792
10
72.849999999999994
20
3.7499999999999964
10
71.25
20
3.7499999999999973
42
-0.41421356237309759
10
70.75
20
4.25
10
70.75
20
4.7499999999999991
42
-0.41421356237309792
10
71.25
20
5.2500000000000027
10
72.849999999999994
20
5.2500000000000036
42
-0.41421356237309792
0
CIRCLE
5
159
100
AcDbEntity
8
0
100
AcDbCircle
10
84.049999999999997
20
3.0000000000000004
30
0
40
1.1499999999999999
210
0
220
0
230
1
0
CIRCLE
5
160
100
AcDbEntity
8
0
100
AcDbCircle
10
84.049999999999997
20
3.0000000000000004
30
0
40
1.1499999999999999
210
0
220
0
230
1
0
ENDSEC
0
SECTION
2
OBJECTS
0
DICTIONARY
5
C
100
AcDbDictionary
3
ACAD_GROUP
350
D
3
ACAD_MLINESTYLE
350
17
0
DICTIONARY
5
D
100
AcDbDictionary
0
DICTIONARY
5
1A
330
C
100
AcDbDictionary
0
DICTIONARY
5
17
100
AcDbDictionary
0
ENDSEC
0
EOF
