  0
SECTION
  2
HEADER
  9
$ACADVER
  1
AC1009
  9
$FILLMODE
 70
0
  9
$EXTMIN
 10
-2.6700
 20
-2.6700
 30
0.0000
  9
$EXTMAX
 10
39.9770
 20
194.4400
 30
0.0000
  0
ENDSEC
  0
SECTION
  2
TABLES
  0
TABLE
  2
LTYPE
 70
1
  0
LTYPE
  2
CONTINUOUS
 70
64
  3
Solid line
 72
65
 73
0
 40
0
  0
ENDTAB
  0
TABLE
  2
LAYER
 70
255
  0
LAYER
  2
20
 70
64
 62
30
  6
CONTINUOUS
  0
ENDTAB
  0
ENDSEC
  0
SECTION
  2
BLOCKS
  0
BLOCK
  8
0
  2
RECT
 70
64
 10
0.0000
 20
0.0000
 30
0.0000
  3
RECT
  0
SOLID
  8
0
 10
-0.5000
 20
-0.5000
 30
0.0000
 11
0.5000
 21
-0.5000
 31
0.0000
 12
-0.5000
 22
0.5000
 32
0.0000
 13
0.5000
 23
0.5000
 33
0.0000
  0
ENDBLK
  8
0
  0
BLOCK
  8
0
  2
PIE
 70
64
 10
0.0000
 20
0.0000
 30
0.0000
  3
PIE
  0
CIRCLE
  8
0
 10
0.0000
 20
0.0000
 30
0.0000
 40
0.5000
  0
ENDBLK
  8
0
  0
BLOCK
  8
0
  2
OCTAGONP
 70
64
 10
0.0000
 20
0.0000
 30
0.0000
  3
OCTAGONP
  0
POLYLINE
  8
0
 66
1
 10
0.0000
 20
0.0000
 30
0.0000
 40
0.0000
 41
0.0000
 70
1
  0
VERTEX
  8
0
 10
-0.5000
 20
-0.2071
 30
0.0000
  0
VERTEX
  8
0
 10
-0.5000
 20
0.2071
 30
0.0000
  0
VERTEX
  8
0
 10
-0.2071
 20
0.5000
 30
0.0000
  0
VERTEX
  8
0
 10
0.2071
 20
0.5000
 30
0.0000
  0
VERTEX
  8
0
 10
0.5000
 20
0.2071
 30
0.0000
  0
VERTEX
  8
0
 10
0.5000
 20
-0.2071
 30
0.0000
  0
VERTEX
  8
0
 10
0.2071
 20
-0.5000
 30
0.0000
  0
VERTEX
  8
0
 10
-0.2071
 20
-0.5000
 30
0.0000
  0
SEQEND
  8
0
  0
ENDBLK
  8
0
  0
BLOCK
  8
0
  2
SQUAREP
 70
64
 10
0.0000
 20
0.0000
 30
0.0000
  3
SQUAREP
  0
SOLID
  8
0
 10
-0.5000
 20
-0.5000
 30
0.0000
 11
0.5000
 21
-0.5000
 31
0.0000
 12
-0.5000
 22
0.5000
 32
0.0000
 13
0.5000
 23
0.5000
 33
0.0000
  0
ENDBLK
  8
0
  0
BLOCK
  8
0
  2
ROUNDP
 70
64
 10
0.0000
 20
0.0000
 30
0.0000
  3
ROUNDP
  0
CIRCLE
  8
0
 10
0.0000
 20
0.0000
 30
0.0000
 40
0.5000
  0
ENDBLK
  8
0
  0
BLOCK
  8
0
  2
ANNULUSP
 70
64
 10
0.0000
 20
0.0000
 30
0.0000
  3
ANNULUSP
  0
CIRCLE
  8
0
 10
0.0000
 20
0.0000
 30
0.0000
 40
0.5000
  0
ENDBLK
  8
0
  0
BLOCK
  8
0
  2
THERMALP
 70
64
 10
0.0000
 20
0.0000
 30
0.0000
  3
THERMALP
  0
POLYLINE
  8
0
 66
1
 10
0.0000
 20
0.0000
 30
0.0000
 40
0.0000
 41
0.0000
 70
1
  0
VERTEX
  8
0
 10
-0.2379
 20
0.4000
 30
0.0000
  0
VERTEX
  8
0
 10
0.2379
 20
0.4000
 30
0.0000
 42
1.0000
  0
VERTEX
  8
0
 10
0.2379
 20
0.5000
 30
0.0000
  0
VERTEX
  8
0
 10
-0.2379
 20
0.5000
 30
0.0000
 42
1.0000
  0
SEQEND
  8
0
  0
POLYLINE
  8
0
 66
1
 10
0.0000
 20
0.0000
 30
0.0000
 40
0.0000
 41
0.0000
 70
1
  0
VERTEX
  8
0
 10
0.4000
 20
0.2379
 30
0.0000
  0
VERTEX
  8
0
 10
0.4000
 20
-0.2379
 30
0.0000
 42
1.0000
  0
VERTEX
  8
0
 10
0.5000
 20
-0.2379
 30
0.0000
  0
VERTEX
  8
0
 10
0.5000
 20
0.2379
 30
0.0000
 42
1.0000
  0
SEQEND
  8
0
  0
POLYLINE
  8
0
 66
1
 10
0.0000
 20
0.0000
 30
0.0000
 40
0.0000
 41
0.0000
 70
1
  0
VERTEX
  8
0
 10
0.2379
 20
-0.4000
 30
0.0000
  0
VERTEX
  8
0
 10
-0.2379
 20
-0.4000
 30
0.0000
 42
1.0000
  0
VERTEX
  8
0
 10
-0.2379
 20
-0.5000
 30
0.0000
  0
VERTEX
  8
0
 10
0.2379
 20
-0.5000
 30
0.0000
 42
1.0000
  0
SEQEND
  8
0
  0
POLYLINE
  8
0
 66
1
 10
0.0000
 20
0.0000
 30
0.0000
 40
0.0000
 41
0.0000
 70
1
  0
VERTEX
  8
0
 10
-0.4000
 20
-0.2379
 30
0.0000
  0
VERTEX
  8
0
 10
-0.4000
 20
0.2379
 30
0.0000
 42
1.0000
  0
VERTEX
  8
0
 10
-0.5000
 20
0.2379
 30
0.0000
  0
VERTEX
  8
0
 10
-0.5000
 20
-0.2379
 30
0.0000
 42
1.0000
  0
SEQEND
  8
0
  0
ENDBLK
  8
0
  0
BLOCK
  8
0
  2
OCTAGONV
 70
64
 10
0.0000
 20
0.0000
 30
0.0000
  3
OCTAGONV
  0
POLYLINE
  8
0
 66
1
 10
0.0000
 20
0.0000
 30
0.0000
 40
0.0000
 41
0.0000
 70
1
  0
VERTEX
  8
0
 10
-0.5000
 20
-0.2071
 30
0.0000
  0
VERTEX
  8
0
 10
-0.5000
 20
0.2071
 30
0.0000
  0
VERTEX
  8
0
 10
-0.2071
 20
0.5000
 30
0.0000
  0
VERTEX
  8
0
 10
0.2071
 20
0.5000
 30
0.0000
  0
VERTEX
  8
0
 10
0.5000
 20
0.2071
 30
0.0000
  0
VERTEX
  8
0
 10
0.5000
 20
-0.2071
 30
0.0000
  0
VERTEX
  8
0
 10
0.2071
 20
-0.5000
 30
0.0000
  0
VERTEX
  8
0
 10
-0.2071
 20
-0.5000
 30
0.0000
  0
SEQEND
  8
0
  0
ENDBLK
  8
0
  0
BLOCK
  8
0
  2
SQUAREV
 70
64
 10
0.0000
 20
0.0000
 30
0.0000
  3
SQUAREV
  0
SOLID
  8
0
 10
-0.5000
 20
-0.5000
 30
0.0000
 11
0.5000
 21
-0.5000
 31
0.0000
 12
-0.5000
 22
0.5000
 32
0.0000
 13
0.5000
 23
0.5000
 33
0.0000
  0
ENDBLK
  8
0
  0
BLOCK
  8
0
  2
ROUNDV
 70
64
 10
0.0000
 20
0.0000
 30
0.0000
  3
ROUNDV
  0
CIRCLE
  8
0
 10
0.0000
 20
0.0000
 30
0.0000
 40
0.5000
  0
ENDBLK
  8
0
  0
BLOCK
  8
0
  2
ANNULUSV
 70
64
 10
0.0000
 20
0.0000
 30
0.0000
  3
ANNULUSV
  0
CIRCLE
  8
0
 10
0.0000
 20
0.0000
 30
0.0000
 40
0.5000
  0
ENDBLK
  8
0
  0
BLOCK
  8
0
  2
THERMALV
 70
64
 10
0.0000
 20
0.0000
 30
0.0000
  3
THERMALV
  0
POLYLINE
  8
0
 66
1
 10
0.0000
 20
0.0000
 30
0.0000
 40
0.0000
 41
0.0000
 70
1
  0
VERTEX
  8
0
 10
-0.2379
 20
0.4000
 30
0.0000
  0
VERTEX
  8
0
 10
0.2379
 20
0.4000
 30
0.0000
 42
1.0000
  0
VERTEX
  8
0
 10
0.2379
 20
0.5000
 30
0.0000
  0
VERTEX
  8
0
 10
-0.2379
 20
0.5000
 30
0.0000
 42
1.0000
  0
SEQEND
  8
0
  0
POLYLINE
  8
0
 66
1
 10
0.0000
 20
0.0000
 30
0.0000
 40
0.0000
 41
0.0000
 70
1
  0
VERTEX
  8
0
 10
0.4000
 20
0.2379
 30
0.0000
  0
VERTEX
  8
0
 10
0.4000
 20
-0.2379
 30
0.0000
 42
1.0000
  0
VERTEX
  8
0
 10
0.5000
 20
-0.2379
 30
0.0000
  0
VERTEX
  8
0
 10
0.5000
 20
0.2379
 30
0.0000
 42
1.0000
  0
SEQEND
  8
0
  0
POLYLINE
  8
0
 66
1
 10
0.0000
 20
0.0000
 30
0.0000
 40
0.0000
 41
0.0000
 70
1
  0
VERTEX
  8
0
 10
0.2379
 20
-0.4000
 30
0.0000
  0
VERTEX
  8
0
 10
-0.2379
 20
-0.4000
 30
0.0000
 42
1.0000
  0
VERTEX
  8
0
 10
-0.2379
 20
-0.5000
 30
0.0000
  0
VERTEX
  8
0
 10
0.2379
 20
-0.5000
 30
0.0000
 42
1.0000
  0
SEQEND
  8
0
  0
POLYLINE
  8
0
 66
1
 10
0.0000
 20
0.0000
 30
0.0000
 40
0.0000
 41
0.0000
 70
1
  0
VERTEX
  8
0
 10
-0.4000
 20
-0.2379
 30
0.0000
  0
VERTEX
  8
0
 10
-0.4000
 20
0.2379
 30
0.0000
 42
1.0000
  0
VERTEX
  8
0
 10
-0.5000
 20
0.2379
 30
0.0000
  0
VERTEX
  8
0
 10
-0.5000
 20
-0.2379
 30
0.0000
 42
1.0000
  0
SEQEND
  8
0
  0
ENDBLK
  8
0
  0
BLOCK
  8
0
  2
LONGP100
 70
64
 10
0.0000
 20
0.0000
 30
0.0000
  3
LONGP100
  0
POLYLINE
  8
0
 66
1
 10
0.0000
 20
0.0000
 30
0.0000
 40
0.0000
 41
0.0000
 70
1
  0
VERTEX
  8
0
 10
-0.5000
 20
-0.5000
 30
0.0000
  0
VERTEX
  8
0
 10
0.5000
 20
-0.5000
 30
0.0000
 42
1.0000
  0
VERTEX
  8
0
 10
0.5000
 20
0.5000
 30
0.0000
  0
VERTEX
  8
0
 10
-0.5000
 20
0.5000
 30
0.0000
 42
1.0000
  0
SEQEND
  8
0
  0
ENDBLK
  8
0
  0
ENDSEC
  0
SECTION
  2
ENTITIES
  0
LINE
  8
20
 10
30.0000
 20
189.0000
 30
0.0000
 11
30.0000
 21
174.0000
 31
0.0000
  0
ARC
  8
20
 10
27.0000
 20
189.0000
 30
0.0000
 40
3.0000
 50
0.0000
 51
90.0000
  0
LINE
  8
20
 10
3.0000
 20
192.0000
 30
0.0000
 11
27.0000
 21
192.0000
 31
0.0000
  0
ARC
  8
20
 10
3.0000
 20
189.0000
 30
0.0000
 40
3.0000
 50
90.0000
 51
180.0000
  0
LINE
  8
20
 10
0.0000
 20
3.0000
 30
0.0000
 11
0.0000
 21
189.0000
 31
0.0000
  0
ARC
  8
20
 10
3.0000
 20
3.0000
 30
0.0000
 40
3.0000
 50
180.0000
 51
270.0000
  0
LINE
  8
20
 10
27.0000
 20
0.0000
 30
0.0000
 11
3.0000
 21
0.0000
 31
0.0000
  0
ARC
  8
20
 10
27.0000
 20
3.0000
 30
0.0000
 40
3.0000
 50
270.0000
 51
0.0000
  0
LINE
  8
20
 10
30.0000
 20
47.5388
 30
0.0000
 11
30.0000
 21
3.0000
 31
0.0000
  0
LINE
  8
20
 10
32.6773
 20
47.5388
 30
0.0000
 11
30.0000
 21
47.5388
 31
0.0000
  0
LINE
  8
20
 10
32.6773
 20
58.5388
 30
0.0000
 11
32.6773
 21
47.5388
 31
0.0000
  0
LINE
  8
20
 10
32.6773
 20
58.5388
 30
0.0000
 11
30.0000
 21
58.5388
 31
0.0000
  0
LINE
  8
20
 10
30.0000
 20
159.0000
 30
0.0000
 11
30.0000
 21
58.5388
 31
0.0000
  0
LINE
  8
20
 10
34.0000
 20
159.0000
 30
0.0000
 11
30.0000
 21
159.0000
 31
0.0000
  0
LINE
  8
20
 10
34.0000
 20
159.0000
 30
0.0000
 11
34.0000
 21
161.7000
 31
0.0000
  0
LINE
  8
20
 10
34.0000
 20
161.7000
 30
0.0000
 11
35.0500
 21
162.7000
 31
0.0000
  0
LINE
  8
20
 10
35.0500
 20
162.7000
 30
0.0000
 11
35.0500
 21
170.3000
 31
0.0000
  0
LINE
  8
20
 10
34.0000
 20
171.3000
 30
0.0000
 11
35.0500
 21
170.3000
 31
0.0000
  0
LINE
  8
20
 10
34.0000
 20
171.3000
 30
0.0000
 11
34.0000
 21
174.0000
 31
0.0000
  0
LINE
  8
20
 10
30.0000
 20
174.0000
 30
0.0000
 11
34.0000
 21
174.0000
 31
0.0000
  0
CIRCLE
  8
20
 10
27.0000
 20
65.6757
 30
0.0000
 40
1.1500
  0
CIRCLE
  8
20
 10
27.0000
 20
3.0000
 30
0.0000
 40
1.1500
  0
CIRCLE
  8
20
 10
3.0000
 20
3.0000
 30
0.0000
 40
1.1500
  0
CIRCLE
  8
20
 10
27.0000
 20
131.1927
 30
0.0000
 40
1.1500
  0
CIRCLE
  8
20
 10
15.0000
 20
95.3008
 30
0.0000
 40
1.1500
  0
CIRCLE
  8
20
 10
27.0000
 20
189.0000
 30
0.0000
 40
1.1500
  0
CIRCLE
  8
20
 10
27.0000
 20
189.0000
 30
0.0000
 40
1.1500
  0
CIRCLE
  8
20
 10
27.0000
 20
131.1927
 30
0.0000
 40
1.1500
  0
CIRCLE
  8
20
 10
15.0000
 20
95.3008
 30
0.0000
 40
1.1500
  0
CIRCLE
  8
20
 10
27.0000
 20
65.6757
 30
0.0000
 40
1.1500
  0
CIRCLE
  8
20
 10
27.0000
 20
3.0000
 30
0.0000
 40
1.1500
  0
CIRCLE
  8
20
 10
3.0000
 20
3.0000
 30
0.0000
 40
1.1500
  0
LINE
  8
20
 10
16.0750
 20
185.8000
 30
0.0000
 11
13.9250
 21
185.8000
 31
0.0000
  0
LINE
  8
20
 10
13.9250
 20
185.8000
 30
0.0000
 11
13.9250
 21
187.8500
 31
0.0000
  0
LINE
  8
20
 10
13.9250
 20
187.8500
 30
0.0000
 11
16.0750
 21
187.8500
 31
0.0000
  0
LINE
  8
20
 10
16.0750
 20
187.8500
 30
0.0000
 11
16.0750
 21
185.8000
 31
0.0000
  0
LINE
  8
20
 10
16.0750
 20
174.5500
 30
0.0000
 11
13.9250
 21
174.5500
 31
0.0000
  0
LINE
  8
20
 10
13.9250
 20
174.5500
 30
0.0000
 11
13.9250
 21
176.6000
 31
0.0000
  0
LINE
  8
20
 10
13.9250
 20
176.6000
 30
0.0000
 11
16.0750
 21
176.6000
 31
0.0000
  0
LINE
  8
20
 10
16.0750
 20
176.6000
 30
0.0000
 11
16.0750
 21
174.5500
 31
0.0000
  0
LINE
  8
20
 10
19.7500
 20
147.6010
 30
0.0000
 11
19.7500
 21
150.2010
 31
0.0000
  0
LINE
  8
20
 10
19.7500
 20
150.2010
 30
0.0000
 11
21.2500
 21
150.2010
 31
0.0000
  0
LINE
  8
20
 10
21.2500
 20
150.2010
 30
0.0000
 11
21.2500
 21
147.6010
 31
0.0000
  0
LINE
  8
20
 10
21.2500
 20
147.6010
 30
0.0000
 11
19.7500
 21
147.6010
 31
0.0000
  0
LINE
  8
20
 10
8.7500
 20
147.6010
 30
0.0000
 11
8.7500
 21
150.2010
 31
0.0000
  0
LINE
  8
20
 10
8.7500
 20
150.2010
 30
0.0000
 11
10.2500
 21
150.2010
 31
0.0000
  0
LINE
  8
20
 10
10.2500
 20
150.2010
 30
0.0000
 11
10.2500
 21
147.6010
 31
0.0000
  0
LINE
  8
20
 10
10.2500
 20
147.6010
 30
0.0000
 11
8.7500
 21
147.6010
 31
0.0000
  0
LINE
  8
20
 10
19.7500
 20
110.9010
 30
0.0000
 11
19.7500
 21
113.5010
 31
0.0000
  0
LINE
  8
20
 10
19.7500
 20
113.5010
 30
0.0000
 11
21.2500
 21
113.5010
 31
0.0000
  0
LINE
  8
20
 10
21.2500
 20
113.5010
 30
0.0000
 11
21.2500
 21
110.9010
 31
0.0000
  0
LINE
  8
20
 10
21.2500
 20
110.9010
 30
0.0000
 11
19.7500
 21
110.9010
 31
0.0000
  0
LINE
  8
20
 10
8.7500
 20
110.9010
 30
0.0000
 11
8.7500
 21
113.5010
 31
0.0000
  0
LINE
  8
20
 10
8.7500
 20
113.5010
 30
0.0000
 11
10.2500
 21
113.5010
 31
0.0000
  0
LINE
  8
20
 10
10.2500
 20
113.5010
 30
0.0000
 11
10.2500
 21
110.9010
 31
0.0000
  0
LINE
  8
20
 10
10.2500
 20
110.9010
 30
0.0000
 11
8.7500
 21
110.9010
 31
0.0000
  0
CIRCLE
  8
20
 10
11.2000
 20
76.9010
 30
0.0000
 40
0.5500
  0
LINE
  8
20
 10
13.7000
 20
5.2500
 30
0.0000
 11
16.3000
 21
5.2500
 31
0.0000
  0
LINE
  8
20
 10
16.3000
 20
5.2500
 30
0.0000
 11
16.3000
 21
3.7500
 31
0.0000
  0
LINE
  8
20
 10
16.3000
 20
3.7500
 30
0.0000
 11
13.7000
 21
3.7500
 31
0.0000
  0
LINE
  8
20
 10
13.7000
 20
3.7500
 30
0.0000
 11
13.7000
 21
5.2500
 31
0.0000
  0
LINE
  8
20
 10
13.7000
 20
16.2500
 30
0.0000
 11
16.3000
 21
16.2500
 31
0.0000
  0
LINE
  8
20
 10
16.3000
 20
16.2500
 30
0.0000
 11
16.3000
 21
14.7500
 31
0.0000
  0
LINE
  8
20
 10
16.3000
 20
14.7500
 30
0.0000
 11
13.7000
 21
14.7500
 31
0.0000
  0
LINE
  8
20
 10
13.7000
 20
14.7500
 30
0.0000
 11
13.7000
 21
16.2500
 31
0.0000
  0
CIRCLE
  8
20
 10
31.7000
 20
164.6000
 30
0.0000
 40
0.5500
  0
CIRCLE
  8
20
 10
31.7000
 20
168.4000
 30
0.0000
 40
0.5500
  0
ENDSEC
  0
EOF
