  0
SECTION
  2
HEADER
  9
$ACADVER
  1
AC1009
  9
$FILLMODE
 70
0
  9
$EXTMIN
 10
-2.6700
 20
-3.9400
 30
0.0000
  9
$EXTMAX
 10
39.5000
 20
195.7100
 30
0.0000
  0
ENDSEC
  0
SECTION
  2
TABLES
  0
TABLE
  2
LTYPE
 70
1
  0
LTYPE
  2
CONTINUOUS
 70
64
  3
Solid line
 72
65
 73
0
 40
0
  0
ENDTAB
  0
TABLE
  2
LAYER
 70
255
  0
LAYER
  2
20
 70
64
 62
30
  6
CONTINUOUS
  0
ENDTAB
  0
ENDSEC
  0
SECTION
  2
BLOCKS
  0
BLOCK
  8
0
  2
RECT
 70
64
 10
0.0000
 20
0.0000
 30
0.0000
  3
RECT
  0
SOLID
  8
0
 10
-0.5000
 20
-0.5000
 30
0.0000
 11
0.5000
 21
-0.5000
 31
0.0000
 12
-0.5000
 22
0.5000
 32
0.0000
 13
0.5000
 23
0.5000
 33
0.0000
  0
ENDBLK
  8
0
  0
BLOCK
  8
0
  2
PIE
 70
64
 10
0.0000
 20
0.0000
 30
0.0000
  3
PIE
  0
CIRCLE
  8
0
 10
0.0000
 20
0.0000
 30
0.0000
 40
0.5000
  0
ENDBLK
  8
0
  0
BLOCK
  8
0
  2
OCTAGONP
 70
64
 10
0.0000
 20
0.0000
 30
0.0000
  3
OCTAGONP
  0
POLYLINE
  8
0
 66
1
 10
0.0000
 20
0.0000
 30
0.0000
 40
0.0000
 41
0.0000
 70
1
  0
VERTEX
  8
0
 10
-0.5000
 20
-0.2071
 30
0.0000
  0
VERTEX
  8
0
 10
-0.5000
 20
0.2071
 30
0.0000
  0
VERTEX
  8
0
 10
-0.2071
 20
0.5000
 30
0.0000
  0
VERTEX
  8
0
 10
0.2071
 20
0.5000
 30
0.0000
  0
VERTEX
  8
0
 10
0.5000
 20
0.2071
 30
0.0000
  0
VERTEX
  8
0
 10
0.5000
 20
-0.2071
 30
0.0000
  0
VERTEX
  8
0
 10
0.2071
 20
-0.5000
 30
0.0000
  0
VERTEX
  8
0
 10
-0.2071
 20
-0.5000
 30
0.0000
  0
SEQEND
  8
0
  0
ENDBLK
  8
0
  0
BLOCK
  8
0
  2
SQUAREP
 70
64
 10
0.0000
 20
0.0000
 30
0.0000
  3
SQUAREP
  0
SOLID
  8
0
 10
-0.5000
 20
-0.5000
 30
0.0000
 11
0.5000
 21
-0.5000
 31
0.0000
 12
-0.5000
 22
0.5000
 32
0.0000
 13
0.5000
 23
0.5000
 33
0.0000
  0
ENDBLK
  8
0
  0
BLOCK
  8
0
  2
ROUNDP
 70
64
 10
0.0000
 20
0.0000
 30
0.0000
  3
ROUNDP
  0
CIRCLE
  8
0
 10
0.0000
 20
0.0000
 30
0.0000
 40
0.5000
  0
ENDBLK
  8
0
  0
BLOCK
  8
0
  2
ANNULUSP
 70
64
 10
0.0000
 20
0.0000
 30
0.0000
  3
ANNULUSP
  0
CIRCLE
  8
0
 10
0.0000
 20
0.0000
 30
0.0000
 40
0.5000
  0
ENDBLK
  8
0
  0
BLOCK
  8
0
  2
THERMALP
 70
64
 10
0.0000
 20
0.0000
 30
0.0000
  3
THERMALP
  0
POLYLINE
  8
0
 66
1
 10
0.0000
 20
0.0000
 30
0.0000
 40
0.0000
 41
0.0000
 70
1
  0
VERTEX
  8
0
 10
-0.2379
 20
0.4000
 30
0.0000
  0
VERTEX
  8
0
 10
0.2379
 20
0.4000
 30
0.0000
 42
1.0000
  0
VERTEX
  8
0
 10
0.2379
 20
0.5000
 30
0.0000
  0
VERTEX
  8
0
 10
-0.2379
 20
0.5000
 30
0.0000
 42
1.0000
  0
SEQEND
  8
0
  0
POLYLINE
  8
0
 66
1
 10
0.0000
 20
0.0000
 30
0.0000
 40
0.0000
 41
0.0000
 70
1
  0
VERTEX
  8
0
 10
0.4000
 20
0.2379
 30
0.0000
  0
VERTEX
  8
0
 10
0.4000
 20
-0.2379
 30
0.0000
 42
1.0000
  0
VERTEX
  8
0
 10
0.5000
 20
-0.2379
 30
0.0000
  0
VERTEX
  8
0
 10
0.5000
 20
0.2379
 30
0.0000
 42
1.0000
  0
SEQEND
  8
0
  0
POLYLINE
  8
0
 66
1
 10
0.0000
 20
0.0000
 30
0.0000
 40
0.0000
 41
0.0000
 70
1
  0
VERTEX
  8
0
 10
0.2379
 20
-0.4000
 30
0.0000
  0
VERTEX
  8
0
 10
-0.2379
 20
-0.4000
 30
0.0000
 42
1.0000
  0
VERTEX
  8
0
 10
-0.2379
 20
-0.5000
 30
0.0000
  0
VERTEX
  8
0
 10
0.2379
 20
-0.5000
 30
0.0000
 42
1.0000
  0
SEQEND
  8
0
  0
POLYLINE
  8
0
 66
1
 10
0.0000
 20
0.0000
 30
0.0000
 40
0.0000
 41
0.0000
 70
1
  0
VERTEX
  8
0
 10
-0.4000
 20
-0.2379
 30
0.0000
  0
VERTEX
  8
0
 10
-0.4000
 20
0.2379
 30
0.0000
 42
1.0000
  0
VERTEX
  8
0
 10
-0.5000
 20
0.2379
 30
0.0000
  0
VERTEX
  8
0
 10
-0.5000
 20
-0.2379
 30
0.0000
 42
1.0000
  0
SEQEND
  8
0
  0
ENDBLK
  8
0
  0
BLOCK
  8
0
  2
OCTAGONV
 70
64
 10
0.0000
 20
0.0000
 30
0.0000
  3
OCTAGONV
  0
POLYLINE
  8
0
 66
1
 10
0.0000
 20
0.0000
 30
0.0000
 40
0.0000
 41
0.0000
 70
1
  0
VERTEX
  8
0
 10
-0.5000
 20
-0.2071
 30
0.0000
  0
VERTEX
  8
0
 10
-0.5000
 20
0.2071
 30
0.0000
  0
VERTEX
  8
0
 10
-0.2071
 20
0.5000
 30
0.0000
  0
VERTEX
  8
0
 10
0.2071
 20
0.5000
 30
0.0000
  0
VERTEX
  8
0
 10
0.5000
 20
0.2071
 30
0.0000
  0
VERTEX
  8
0
 10
0.5000
 20
-0.2071
 30
0.0000
  0
VERTEX
  8
0
 10
0.2071
 20
-0.5000
 30
0.0000
  0
VERTEX
  8
0
 10
-0.2071
 20
-0.5000
 30
0.0000
  0
SEQEND
  8
0
  0
ENDBLK
  8
0
  0
BLOCK
  8
0
  2
SQUAREV
 70
64
 10
0.0000
 20
0.0000
 30
0.0000
  3
SQUAREV
  0
SOLID
  8
0
 10
-0.5000
 20
-0.5000
 30
0.0000
 11
0.5000
 21
-0.5000
 31
0.0000
 12
-0.5000
 22
0.5000
 32
0.0000
 13
0.5000
 23
0.5000
 33
0.0000
  0
ENDBLK
  8
0
  0
BLOCK
  8
0
  2
ROUNDV
 70
64
 10
0.0000
 20
0.0000
 30
0.0000
  3
ROUNDV
  0
CIRCLE
  8
0
 10
0.0000
 20
0.0000
 30
0.0000
 40
0.5000
  0
ENDBLK
  8
0
  0
BLOCK
  8
0
  2
ANNULUSV
 70
64
 10
0.0000
 20
0.0000
 30
0.0000
  3
ANNULUSV
  0
CIRCLE
  8
0
 10
0.0000
 20
0.0000
 30
0.0000
 40
0.5000
  0
ENDBLK
  8
0
  0
BLOCK
  8
0
  2
THERMALV
 70
64
 10
0.0000
 20
0.0000
 30
0.0000
  3
THERMALV
  0
POLYLINE
  8
0
 66
1
 10
0.0000
 20
0.0000
 30
0.0000
 40
0.0000
 41
0.0000
 70
1
  0
VERTEX
  8
0
 10
-0.2379
 20
0.4000
 30
0.0000
  0
VERTEX
  8
0
 10
0.2379
 20
0.4000
 30
0.0000
 42
1.0000
  0
VERTEX
  8
0
 10
0.2379
 20
0.5000
 30
0.0000
  0
VERTEX
  8
0
 10
-0.2379
 20
0.5000
 30
0.0000
 42
1.0000
  0
SEQEND
  8
0
  0
POLYLINE
  8
0
 66
1
 10
0.0000
 20
0.0000
 30
0.0000
 40
0.0000
 41
0.0000
 70
1
  0
VERTEX
  8
0
 10
0.4000
 20
0.2379
 30
0.0000
  0
VERTEX
  8
0
 10
0.4000
 20
-0.2379
 30
0.0000
 42
1.0000
  0
VERTEX
  8
0
 10
0.5000
 20
-0.2379
 30
0.0000
  0
VERTEX
  8
0
 10
0.5000
 20
0.2379
 30
0.0000
 42
1.0000
  0
SEQEND
  8
0
  0
POLYLINE
  8
0
 66
1
 10
0.0000
 20
0.0000
 30
0.0000
 40
0.0000
 41
0.0000
 70
1
  0
VERTEX
  8
0
 10
0.2379
 20
-0.4000
 30
0.0000
  0
VERTEX
  8
0
 10
-0.2379
 20
-0.4000
 30
0.0000
 42
1.0000
  0
VERTEX
  8
0
 10
-0.2379
 20
-0.5000
 30
0.0000
  0
VERTEX
  8
0
 10
0.2379
 20
-0.5000
 30
0.0000
 42
1.0000
  0
SEQEND
  8
0
  0
POLYLINE
  8
0
 66
1
 10
0.0000
 20
0.0000
 30
0.0000
 40
0.0000
 41
0.0000
 70
1
  0
VERTEX
  8
0
 10
-0.4000
 20
-0.2379
 30
0.0000
  0
VERTEX
  8
0
 10
-0.4000
 20
0.2379
 30
0.0000
 42
1.0000
  0
VERTEX
  8
0
 10
-0.5000
 20
0.2379
 30
0.0000
  0
VERTEX
  8
0
 10
-0.5000
 20
-0.2379
 30
0.0000
 42
1.0000
  0
SEQEND
  8
0
  0
ENDBLK
  8
0
  0
ENDSEC
  0
SECTION
  2
ENTITIES
  0
LINE
  8
20
 10
1.0500
 20
161.7000
 30
0.0000
 11
1.0500
 21
159.0000
 31
0.0000
  0
LINE
  8
20
 10
1.0500
 20
159.0000
 30
0.0000
 11
5.0500
 21
159.0000
 31
0.0000
  0
LINE
  8
20
 10
5.0500
 20
159.0000
 30
0.0000
 11
5.0500
 21
3.0000
 31
0.0000
  0
ARC
  8
20
 10
8.0500
 20
3.0000
 30
0.0000
 40
3.0000
 50
180.0000
 51
270.0000
  0
LINE
  8
20
 10
8.0500
 20
0.0000
 30
0.0000
 11
32.0500
 21
0.0000
 31
0.0000
  0
ARC
  8
20
 10
32.0500
 20
3.0000
 30
0.0000
 40
3.0000
 50
270.0000
 51
0.0000
  0
LINE
  8
20
 10
35.0500
 20
3.0000
 30
0.0000
 11
35.0500
 21
189.0000
 31
0.0000
  0
ARC
  8
20
 10
32.0500
 20
189.0000
 30
0.0000
 40
3.0000
 50
0.0000
 51
90.0000
  0
LINE
  8
20
 10
32.0500
 20
192.0000
 30
0.0000
 11
8.0500
 21
192.0000
 31
0.0000
  0
ARC
  8
20
 10
8.0500
 20
189.0000
 30
0.0000
 40
3.0000
 50
90.0000
 51
180.0000
  0
LINE
  8
20
 10
5.0500
 20
189.0000
 30
0.0000
 11
5.0500
 21
174.0000
 31
0.0000
  0
LINE
  8
20
 10
5.0500
 20
174.0000
 30
0.0000
 11
1.0500
 21
174.0000
 31
0.0000
  0
LINE
  8
20
 10
1.0500
 20
174.0000
 30
0.0000
 11
1.0500
 21
171.3000
 31
0.0000
  0
LINE
  8
20
 10
1.0500
 20
171.3000
 30
0.0000
 11
0.0000
 21
170.3000
 31
0.0000
  0
LINE
  8
20
 10
0.0000
 20
162.7000
 30
0.0000
 11
0.0000
 21
170.3000
 31
0.0000
  0
LINE
  8
20
 10
1.0500
 20
161.7000
 30
0.0000
 11
0.0000
 21
162.7000
 31
0.0000
  0
CIRCLE
  8
20
 10
8.0500
 20
3.0000
 30
0.0000
 40
1.1500
  0
CIRCLE
  8
20
 10
8.0500
 20
131.1927
 30
0.0000
 40
1.1500
  0
CIRCLE
  8
20
 10
20.0500
 20
99.9446
 30
0.0000
 40
1.1500
  0
CIRCLE
  8
20
 10
32.0500
 20
3.0000
 30
0.0000
 40
1.1500
  0
CIRCLE
  8
20
 10
8.0500
 20
189.0000
 30
0.0000
 40
1.1500
  0
CIRCLE
  8
20
 10
8.0500
 20
189.0000
 30
0.0000
 40
1.1500
  0
CIRCLE
  8
20
 10
8.0500
 20
131.1927
 30
0.0000
 40
1.1500
  0
CIRCLE
  8
20
 10
20.0500
 20
99.9446
 30
0.0000
 40
1.1500
  0
CIRCLE
  8
20
 10
8.0500
 20
3.0000
 30
0.0000
 40
1.1500
  0
CIRCLE
  8
20
 10
32.0500
 20
3.0000
 30
0.0000
 40
1.1500
  0
LINE
  8
20
 10
18.9750
 20
176.7010
 30
0.0000
 11
21.1250
 21
176.7010
 31
0.0000
  0
LINE
  8
20
 10
21.1250
 20
176.7010
 30
0.0000
 11
21.1250
 21
174.6510
 31
0.0000
  0
LINE
  8
20
 10
21.1250
 20
174.6510
 30
0.0000
 11
18.9750
 21
174.6510
 31
0.0000
  0
LINE
  8
20
 10
18.9750
 20
174.6510
 30
0.0000
 11
18.9750
 21
176.7010
 31
0.0000
  0
LINE
  8
20
 10
18.9750
 20
187.9510
 30
0.0000
 11
21.1250
 21
187.9510
 31
0.0000
  0
LINE
  8
20
 10
21.1250
 20
187.9510
 30
0.0000
 11
21.1250
 21
185.9010
 31
0.0000
  0
LINE
  8
20
 10
21.1250
 20
185.9010
 30
0.0000
 11
18.9750
 21
185.9010
 31
0.0000
  0
LINE
  8
20
 10
18.9750
 20
185.9010
 30
0.0000
 11
18.9750
 21
187.9510
 31
0.0000
  0
LINE
  8
20
 10
15.3000
 20
150.2010
 30
0.0000
 11
15.3000
 21
147.6010
 31
0.0000
  0
LINE
  8
20
 10
15.3000
 20
147.6010
 30
0.0000
 11
13.8000
 21
147.6010
 31
0.0000
  0
LINE
  8
20
 10
13.8000
 20
147.6010
 30
0.0000
 11
13.8000
 21
150.2010
 31
0.0000
  0
LINE
  8
20
 10
13.8000
 20
150.2010
 30
0.0000
 11
15.3000
 21
150.2010
 31
0.0000
  0
LINE
  8
20
 10
26.3000
 20
150.2010
 30
0.0000
 11
26.3000
 21
147.6010
 31
0.0000
  0
LINE
  8
20
 10
26.3000
 20
147.6010
 30
0.0000
 11
24.8000
 21
147.6010
 31
0.0000
  0
LINE
  8
20
 10
24.8000
 20
147.6010
 30
0.0000
 11
24.8000
 21
150.2010
 31
0.0000
  0
LINE
  8
20
 10
24.8000
 20
150.2010
 30
0.0000
 11
26.3000
 21
150.2010
 31
0.0000
  0
LINE
  8
20
 10
18.9750
 20
109.2010
 30
0.0000
 11
21.1250
 21
109.2010
 31
0.0000
  0
LINE
  8
20
 10
21.1250
 20
109.2010
 30
0.0000
 11
21.1250
 21
107.1510
 31
0.0000
  0
LINE
  8
20
 10
21.1250
 20
107.1510
 30
0.0000
 11
18.9750
 21
107.1510
 31
0.0000
  0
LINE
  8
20
 10
18.9750
 20
107.1510
 30
0.0000
 11
18.9750
 21
109.2010
 31
0.0000
  0
LINE
  8
20
 10
18.9750
 20
120.4510
 30
0.0000
 11
21.1250
 21
120.4510
 31
0.0000
  0
LINE
  8
20
 10
21.1250
 20
120.4510
 30
0.0000
 11
21.1250
 21
118.4010
 31
0.0000
  0
LINE
  8
20
 10
21.1250
 20
118.4010
 30
0.0000
 11
18.9750
 21
118.4010
 31
0.0000
  0
LINE
  8
20
 10
18.9750
 20
118.4010
 30
0.0000
 11
18.9750
 21
120.4510
 31
0.0000
  0
LINE
  8
20
 10
21.3500
 20
14.7500
 30
0.0000
 11
18.7500
 21
14.7500
 31
0.0000
  0
LINE
  8
20
 10
18.7500
 20
14.7500
 30
0.0000
 11
18.7500
 21
16.2500
 31
0.0000
  0
LINE
  8
20
 10
18.7500
 20
16.2500
 30
0.0000
 11
21.3500
 21
16.2500
 31
0.0000
  0
LINE
  8
20
 10
21.3500
 20
16.2500
 30
0.0000
 11
21.3500
 21
14.7500
 31
0.0000
  0
LINE
  8
20
 10
21.3500
 20
3.7500
 30
0.0000
 11
18.7500
 21
3.7500
 31
0.0000
  0
LINE
  8
20
 10
18.7500
 20
3.7500
 30
0.0000
 11
18.7500
 21
5.2500
 31
0.0000
  0
LINE
  8
20
 10
18.7500
 20
5.2500
 30
0.0000
 11
21.3500
 21
5.2500
 31
0.0000
  0
LINE
  8
20
 10
21.3500
 20
5.2500
 30
0.0000
 11
21.3500
 21
3.7500
 31
0.0000
  0
CIRCLE
  8
20
 10
3.4000
 20
168.4000
 30
0.0000
 40
0.5500
  0
CIRCLE
  8
20
 10
3.4000
 20
164.6000
 30
0.0000
 40
0.5500
  0
ENDSEC
  0
EOF
