0
SECTION
2
HEADER
9
$INSUNITS
70
4
9
$ACADVER
1
AC1014
9
$HANDSEED
5
FFFF
0
ENDSEC
0
SECTION
2
TABLES
0
TABLE
2
VPORT
5
8
100
AcDbSymbolTable
0
ENDTAB
0
TABLE
2
LTYPE
5
5
100
AcDbSymbolTable
0
LTYPE
5
14
100
AcDbSymbolTableRecord
100
AcDbLinetypeTableRecord
2
BYBLOCK
70
0
0
LTYPE
5
15
100
AcDbSymbolTableRecord
100
AcDbLinetypeTableRecord
2
BYLAYER
70
0
0
ENDTAB
0
TABLE
2
LAYER
5
2
100
AcDbSymbolTable
70
2
0
LAYER
5
50
100
AcDbSymbolTableRecord
100
AcDbLayerTableRecord
2
0
70
0
6
CONTINUOUS
0
ENDTAB
0
TABLE
2
STYLE
5
3
100
AcDbSymbolTable
70
1
0
STYLE
5
11
100
AcDbSymbolTableRecord
100
AcDbTextStyleTableRecord
2
STANDARD
70
0
0
ENDTAB
0
TABLE
2
VIEW
5
6
100
AcDbSymbolTable
70
0
0
ENDTAB
0
TABLE
2
UCS
5
7
100
AcDbSymbolTable
70
0
0
ENDTAB
0
TABLE
2
APPID
5
9
100
AcDbSymbolTable
70
2
0
APPID
5
12
100
AcDbSymbolTableRecord
100
AcDbRegAppTableRecord
2
ACAD
70
0
0
ENDTAB
0
TABLE
2
DIMSTYLE
5
A
100
AcDbSymbolTable
70
1
0
ENDTAB
0
TABLE
2
BLOCK_RECORD
5
1
100
AcDbSymbolTable
70
1
0
BLOCK_RECORD
5
1F
100
AcDbSymbolTableRecord
100
AcDbBlockTableRecord
2
*MODEL_SPACE
0
BLOCK_RECORD
5
1B
100
AcDbSymbolTableRecord
100
AcDbBlockTableRecord
2
*PAPER_SPACE
0
ENDTAB
0
ENDSEC
0
SECTION
2
BLOCKS
0
BLOCK
5
20
100
AcDbEntity
100
AcDbBlockBegin
2
*MODEL_SPACE
0
ENDBLK
5
21
100
AcDbEntity
100
AcDbBlockEnd
0
BLOCK
5
1C
100
AcDbEntity
100
AcDbBlockBegin
2
*PAPER_SPACE
0
ENDBLK
5
1D
100
AcDbEntity
100
AcDbBlockEnd
0
ENDSEC
0
SECTION
2
ENTITIES
0
LWPOLYLINE
5
100
100
AcDbEntity
8
0
100
AcDbPolyline
90
40
70
1
43
0.0
10
307.584
20
159
10
307.584
20
58.538800000000002
10
307.584
20
47.538800000000009
10
307.584
20
2.9999999999999987
42
-0.41421356237309481
10
304.58399999999995
20
0
10
280.584
20
0
10
265.31699999999995
20
-3.1086244689504383e-14
10
47.316999999999958
20
-4.4408920985006262e-15
10
32.049999999999997
20
0
10
8.0500000000000007
20
-1.1102230246251565e-15
42
-0.4142135623730957
10
5.0499999999999998
20
3.0000000000000071
10
5.0499999999999998
20
159
10
1.05
20
159
10
1.05
20
161.69999999999999
10
0
20
162.69999999999999
10
0
20
170.30000000000001
10
1.05
20
171.30000000000001
10
1.0499999999999998
20
174.00000000000003
10
5.0499999999999998
20
174.00000000000003
10
5.0499999999999945
20
189.00000000000003
42
-0.41421356237309509
10
8.0500000000000007
20
192.00000000000003
10
32.049999999999997
20
192.00000000000003
42
-0.41421356237309509
10
35.049999999999997
20
189.00000000000003
10
35.049999999999997
20
15
42
0.41421356237309637
10
38.049999999999997
20
11.999999999999996
10
47.366999478459313
20
11.999999999999996
10
265.31699999999995
20
11.999999999999979
10
274.58399999999995
20
11.999999999999979
42
0.41421356237308854
10
277.584
20
14.99999999999998
10
277.584
20
189.00000000000003
42
-0.41421356237309509
10
280.584
20
192.00000000000003
10
304.58399999999995
20
192.00000000000003
42
-0.41421356237309509
10
307.584
20
189.00000000000003
10
307.584
20
174.00000000000003
10
311.58399999999995
20
174.00000000000003
10
311.58399999999995
20
171.30000000000001
10
312.63399999999996
20
170.30000000000001
10
312.63399999999996
20
162.69999999999999
10
311.58399999999995
20
161.69999999999999
10
311.58399999999995
20
159
0
CIRCLE
5
101
100
AcDbEntity
8
0
100
AcDbCircle
10
265.31699999999995
20
5.9999999999999742
30
0
40
1.1499999999999999
210
-0
220
0
230
1
0
CIRCLE
5
102
100
AcDbEntity
8
0
100
AcDbCircle
10
265.31699999999995
20
5.9999999999999742
30
0
40
1.1499999999999999
210
-0
220
0
230
1
0
CIRCLE
5
103
100
AcDbEntity
8
0
100
AcDbCircle
10
304.58399999999995
20
3.0000000000000004
30
0
40
1.1499999999999999
210
0
220
0
230
1
0
LWPOLYLINE
5
104
100
AcDbEntity
8
0
100
AcDbPolyline
90
8
70
1
43
0.0
10
19.575000000000003
20
109.20099999999999
10
20.525000000000002
20
109.20099999999999
42
-0.41421356237309293
10
21.125000000000004
20
108.601
10
21.125000000000011
20
107.751
42
-0.41421356237309714
10
20.525000000000002
20
107.151
10
19.575000000000003
20
107.151
42
-0.41421356237309614
10
18.975000000000001
20
107.751
10
18.975000000000005
20
108.601
42
-0.41421356237309176
0
LWPOLYLINE
5
105
100
AcDbEntity
8
0
100
AcDbPolyline
90
8
70
1
43
0.0
10
20.525000000000002
20
118.401
10
19.575000000000003
20
118.401
42
-0.41421356237309614
10
18.974999999999998
20
119.001
10
18.975000000000005
20
119.851
42
-0.41421356237309176
10
19.575000000000003
20
120.45099999999999
10
20.525000000000002
20
120.45099999999999
42
-0.41421356237309293
10
21.125000000000004
20
119.851
10
21.125000000000011
20
119.001
42
-0.41421356237309714
0
CIRCLE
5
106
100
AcDbEntity
8
0
100
AcDbCircle
10
209.68699999999998
20
1.999999999999984
30
0
40
1.1499999999999999
210
-0
220
0
230
1
0
LWPOLYLINE
5
107
100
AcDbEntity
8
0
100
AcDbPolyline
90
8
70
1
43
0.0
10
14.700000000000005
20
147.601
10
14.399999999999999
20
147.601
42
-0.41421356237309614
10
13.799999999999999
20
148.20100000000002
10
13.799999999999994
20
149.601
42
-0.41421356237309614
10
14.400000000000002
20
150.20099999999999
10
14.700000000000003
20
150.20099999999999
42
-0.41421356237309614
10
15.30000000000001
20
149.601
10
15.300000000000011
20
148.20100000000002
42
-0.41421356237309614
0
LWPOLYLINE
5
108
100
AcDbEntity
8
0
100
AcDbPolyline
90
8
70
1
43
0.0
10
18.975000000000005
20
175.25100000000003
42
0.41421356237313617
10
19.575000000000003
20
174.65100000000004
10
20.525000000000002
20
174.65100000000004
42
0.41421356237315571
10
21.125000000000007
20
175.25100000000006
10
21.125000000000004
20
176.10100000000003
42
0.41421356237313839
10
20.525000000000002
20
176.70100000000002
10
19.575000000000003
20
176.70100000000002
42
0.41421356237313517
10
18.975000000000005
20
176.10100000000003
0
LWPOLYLINE
5
109
100
AcDbEntity
8
0
100
AcDbPolyline
90
8
70
1
43
0.0
10
18.975000000000005
20
186.50100000000003
42
0.41421356237313617
10
19.575000000000003
20
185.90100000000004
10
20.525000000000006
20
185.90100000000004
42
0.41421356237313406
10
21.125000000000004
20
186.50100000000003
10
21.125000000000007
20
187.351
42
0.41421356237315571
10
20.525000000000002
20
187.95100000000002
10
19.575000000000003
20
187.95100000000002
42
0.41421356237313517
10
18.975000000000005
20
187.35100000000003
0
LWPOLYLINE
5
110
100
AcDbEntity
8
0
100
AcDbPolyline
90
8
70
1
43
0.0
10
25.700000000000006
20
147.601
10
25.400000000000006
20
147.601
42
-0.41421356237309509
10
24.800000000000001
20
148.20100000000002
10
24.800000000000001
20
149.601
42
-0.41421356237309509
10
25.400000000000006
20
150.20099999999999
10
25.700000000000003
20
150.20099999999999
42
-0.41421356237309714
10
26.300000000000011
20
149.601
10
26.300000000000011
20
148.20100000000002
42
-0.41421356237309509
0
CIRCLE
5
111
100
AcDbEntity
8
0
100
AcDbCircle
10
292.584
20
95.300799999999995
30
0
40
1.1499999999999999
210
0
220
0
230
1
0
LWPOLYLINE
5
112
100
AcDbEntity
8
0
100
AcDbPolyline
90
8
70
1
43
0.0
10
293.28399999999999
20
3.7500000000000169
42
0.41421356237312779
10
293.88399999999996
20
4.3499999999999996
10
293.88399999999996
20
4.6500000000000004
42
0.41421356237312806
10
293.28399999999999
20
5.249999999999984
10
291.88399999999996
20
5.2499999999999805
42
0.41421356237312867
10
291.28399999999999
20
4.6499999999999959
10
291.28399999999999
20
4.350000000000005
42
0.41421356237312917
10
291.88399999999996
20
3.7500000000000187
0
LWPOLYLINE
5
113
100
AcDbEntity
8
0
100
AcDbPolyline
90
8
70
1
43
0.0
10
293.28399999999999
20
14.75
10
291.88399999999996
20
14.750000000000018
42
-0.41421356237312756
10
291.28399999999999
20
15.350000000000001
10
291.28399999999999
20
15.649999999999999
42
-0.41421356237312756
10
291.88399999999996
20
16.249999999999982
10
293.28399999999999
20
16.249999999999979
42
-0.41421356237312867
10
293.88399999999996
20
15.649999999999995
10
293.88399999999996
20
15.350000000000001
42
-0.41421356237312756
0
CIRCLE
5
114
100
AcDbEntity
8
0
100
AcDbCircle
10
3.4000000000000004
20
168.40000000000001
30
0
40
0.55000000000000004
210
0
220
0
230
1
0
LWPOLYLINE
5
115
100
AcDbEntity
8
0
100
AcDbPolyline
90
8
70
1
43
0.0
10
297.93399999999997
20
113.501
10
298.23399999999998
20
113.501
42
-0.41421356237313839
10
298.834
20
112.90100000000001
10
298.834
20
111.501
42
-0.41421356237315571
10
298.23399999999998
20
110.901
10
297.93399999999997
20
110.901
42
-0.41421356237315571
10
297.334
20
111.501
10
297.334
20
112.90100000000001
42
-0.41421356237313839
0
CIRCLE
5
116
100
AcDbEntity
8
0
100
AcDbCircle
10
3.4000000000000004
20
164.60000000000002
30
0
40
0.55000000000000004
210
0
220
0
230
1
0
CIRCLE
5
117
100
AcDbEntity
8
0
100
AcDbCircle
10
209.68699999999998
20
1.999999999999984
30
0
40
1.1499999999999999
210
-0
220
0
230
1
0
CIRCLE
5
118
100
AcDbEntity
8
0
100
AcDbCircle
10
288.78399999999999
20
76.900999999999996
30
0
40
0.55000000000000004
210
0
220
0
230
1
0
CIRCLE
5
119
100
AcDbEntity
8
0
100
AcDbCircle
10
304.58399999999995
20
65.675700000000006
30
0
40
1.1499999999999999
210
0
220
0
230
1
0
CIRCLE
5
120
100
AcDbEntity
8
0
100
AcDbCircle
10
8.0500000000000007
20
131.1927
30
0
40
1.1499999999999999
210
0
220
0
230
1
0
CIRCLE
5
121
100
AcDbEntity
8
0
100
AcDbCircle
10
304.58399999999995
20
65.675700000000006
30
0
40
1.1499999999999999
210
0
220
0
230
1
0
CIRCLE
5
122
100
AcDbEntity
8
0
100
AcDbCircle
10
20.050000000000004
20
99.944600000000008
30
0
40
1.1499999999999999
210
0
220
0
230
1
0
CIRCLE
5
123
100
AcDbEntity
8
0
100
AcDbCircle
10
280.584
20
3.0000000000000004
30
0
40
1.1499999999999999
210
0
220
0
230
1
0
CIRCLE
5
124
100
AcDbEntity
8
0
100
AcDbCircle
10
280.584
20
3.0000000000000004
30
0
40
1.1499999999999999
210
0
220
0
230
1
0
CIRCLE
5
125
100
AcDbEntity
8
0
100
AcDbCircle
10
20.050000000000004
20
99.944600000000008
30
0
40
1.1499999999999999
210
0
220
0
230
1
0
CIRCLE
5
126
100
AcDbEntity
8
0
100
AcDbCircle
10
8.0500000000000007
20
131.1927
30
0
40
1.1499999999999999
210
0
220
0
230
1
0
CIRCLE
5
127
100
AcDbEntity
8
0
100
AcDbCircle
10
292.584
20
95.300799999999995
30
0
40
1.1499999999999999
210
0
220
0
230
1
0
CIRCLE
5
128
100
AcDbEntity
8
0
100
AcDbCircle
10
304.58399999999995
20
3.0000000000000004
30
0
40
1.1499999999999999
210
0
220
0
230
1
0
CIRCLE
5
129
100
AcDbEntity
8
0
100
AcDbCircle
10
47.316999999999958
20
5.999999999999992
30
0
40
1.1499999999999999
210
-0
220
0
230
1
0
LWPOLYLINE
5
130
100
AcDbEntity
8
0
100
AcDbPolyline
90
8
70
1
43
0.0
10
287.83399999999995
20
112.90100000000001
42
0.41421356237315571
10
287.23399999999992
20
113.501
10
286.93400000000003
20
113.501
42
0.41421356237315571
10
286.334
20
112.90100000000001
10
286.334
20
111.501
42
0.41421356237315571
10
286.93400000000003
20
110.901
10
287.23399999999998
20
110.901
42
0.41421356237313839
10
287.83399999999995
20
111.501
0
LWPOLYLINE
5
131
100
AcDbEntity
8
0
100
AcDbPolyline
90
8
70
1
43
0.0
10
297.334
20
148.20100000000002
10
297.334
20
149.601
42
-0.41421356237315571
10
297.93400000000003
20
150.20099999999999
10
298.23399999999998
20
150.20099999999999
42
-0.41421356237315571
10
298.834
20
149.601
10
298.834
20
148.20100000000002
42
-0.41421356237315571
10
298.23399999999998
20
147.601
10
297.93399999999997
20
147.601
42
-0.41421356237315571
0
LWPOLYLINE
5
132
100
AcDbEntity
8
0
100
AcDbPolyline
90
8
70
1
43
0.0
10
18.75
20
15.350000000000001
10
18.75
20
15.649999999999999
42
-0.4142135623730907
10
19.350000000000001
20
16.25
10
20.75
20
16.25
42
-0.41421356237309714
10
21.350000000000009
20
15.649999999999999
10
21.350000000000009
20
15.35
42
-0.4142135623730907
10
20.750000000000007
20
14.75
10
19.350000000000001
20
14.75
42
-0.4142135623730907
0
CIRCLE
5
133
100
AcDbEntity
8
0
100
AcDbCircle
10
156.31700000000001
20
1.999999999999984
30
0
40
1.1499999999999999
210
-0
220
0
230
1
0
CIRCLE
5
134
100
AcDbEntity
8
0
100
AcDbCircle
10
304.58399999999995
20
131.1927
30
0
40
1.1499999999999999
210
0
220
0
230
1
0
CIRCLE
5
135
100
AcDbEntity
8
0
100
AcDbCircle
10
47.316999999999958
20
5.999999999999992
30
0
40
1.1499999999999999
210
-0
220
0
230
1
0
CIRCLE
5
136
100
AcDbEntity
8
0
100
AcDbCircle
10
8.0500000000000007
20
3.0000000000000004
30
0
40
1.1499999999999999
210
0
220
0
230
1
0
LWPOLYLINE
5
137
100
AcDbEntity
8
0
100
AcDbPolyline
90
8
70
1
43
0.0
10
293.65899999999999
20
187.25
10
293.65899999999999
20
186.40000000000001
42
-0.41421356237316442
10
293.05900000000003
20
185.80000000000001
10
292.10899999999992
20
185.80000000000001
42
-0.41421356237316442
10
291.50899999999996
20
186.40000000000001
10
291.50899999999996
20
187.25
42
-0.41421356237316442
10
292.10899999999992
20
187.84999999999999
10
293.05900000000003
20
187.84999999999999
42
-0.41421356237316442
0
LWPOLYLINE
5
138
100
AcDbEntity
8
0
100
AcDbPolyline
90
8
70
1
43
0.0
10
293.05900000000003
20
174.55000000000001
10
292.10899999999992
20
174.55000000000001
42
-0.41421356237316442
10
291.50899999999996
20
175.15000000000001
10
291.50899999999996
20
176
42
-0.41421356237316442
10
292.10899999999992
20
176.59999999999999
10
293.05900000000003
20
176.59999999999999
42
-0.41421356237316442
10
293.65899999999999
20
176
10
293.65899999999999
20
175.15000000000001
42
-0.41421356237316442
0
LWPOLYLINE
5
139
100
AcDbEntity
8
0
100
AcDbPolyline
90
8
70
1
43
0.0
10
19.350000000000001
20
5.25
10
20.75
20
5.25
42
-0.41421356237309914
10
21.350000000000001
20
4.6500000000000004
10
21.350000000000001
20
4.3499999999999996
42
-0.41421356237309853
10
20.75
20
3.7500000000000009
10
19.350000000000001
20
3.7500000000000004
42
-0.41421356237309231
10
18.75
20
4.3499999999999996
10
18.75
20
4.6500000000000004
42
-0.41421356237309315
0
LWPOLYLINE
5
140
100
AcDbEntity
8
0
100
AcDbPolyline
90
8
70
1
43
0.0
10
286.93399999999997
20
150.20099999999999
42
0.41421356237313839
10
286.334
20
149.601
10
286.334
20
148.20100000000002
42
0.41421356237313839
10
286.93399999999997
20
147.601
10
287.23399999999992
20
147.601
42
0.41421356237315571
10
287.83399999999995
20
148.20100000000002
10
287.83399999999995
20
149.601
42
0.41421356237315571
10
287.23399999999992
20
150.20099999999999
0
CIRCLE
5
141
100
AcDbEntity
8
0
100
AcDbCircle
10
102.94699999999999
20
1.9999999999999885
30
0
40
1.1499999999999999
210
-0
220
0
230
1
0
CIRCLE
5
142
100
AcDbEntity
8
0
100
AcDbCircle
10
304.58399999999995
20
131.1927
30
0
40
1.1499999999999999
210
0
220
0
230
1
0
CIRCLE
5
143
100
AcDbEntity
8
0
100
AcDbCircle
10
32.049999999999997
20
3.0000000000000004
30
0
40
1.1499999999999999
210
0
220
0
230
1
0
CIRCLE
5
144
100
AcDbEntity
8
0
100
AcDbCircle
10
102.94699999999999
20
1.9999999999999885
30
0
40
1.1499999999999999
210
-0
220
0
230
1
0
CIRCLE
5
145
100
AcDbEntity
8
0
100
AcDbCircle
10
8.0500000000000007
20
189.00000000000003
30
0
40
1.1499999999999999
210
0
220
0
230
1
0
CIRCLE
5
146
100
AcDbEntity
8
0
100
AcDbCircle
10
304.58399999999995
20
189.00000000000003
30
0
40
1.1499999999999999
210
0
220
0
230
1
0
CIRCLE
5
147
100
AcDbEntity
8
0
100
AcDbCircle
10
8.0500000000000007
20
189.00000000000003
30
0
40
1.1499999999999999
210
0
220
0
230
1
0
CIRCLE
5
148
100
AcDbEntity
8
0
100
AcDbCircle
10
32.049999999999997
20
3.0000000000000004
30
0
40
1.1499999999999999
210
0
220
0
230
1
0
CIRCLE
5
149
100
AcDbEntity
8
0
100
AcDbCircle
10
8.0500000000000007
20
3.0000000000000004
30
0
40
1.1499999999999999
210
0
220
0
230
1
0
CIRCLE
5
150
100
AcDbEntity
8
0
100
AcDbCircle
10
304.58399999999995
20
189.00000000000003
30
0
40
1.1499999999999999
210
0
220
0
230
1
0
CIRCLE
5
151
100
AcDbEntity
8
0
100
AcDbCircle
10
156.31700000000001
20
1.999999999999984
30
0
40
1.1499999999999999
210
-0
220
0
230
1
0
CIRCLE
5
152
100
AcDbEntity
8
0
100
AcDbCircle
10
309.28399999999999
20
168.40000000000001
30
0
40
0.55000000000000004
210
0
220
0
230
1
0
CIRCLE
5
153
100
AcDbEntity
8
0
100
AcDbCircle
10
309.28399999999999
20
164.60000000000002
30
0
40
0.55000000000000004
210
0
220
0
230
1
0
LWPOLYLINE
5
154
100
AcDbEntity
8
0
100
AcDbPolyline
90
4
70
1
43
0.0
10
299.87100000000004
20
50.520000000000003
10
298.77100000000002
20
50.520000000000003
42
0.99999999999999989
10
298.77100000000002
20
50.02000000000001
10
299.87100000000004
20
50.02000000000001
42
0.99999999999999989
0
LWPOLYLINE
5
155
100
AcDbEntity
8
0
100
AcDbPolyline
90
4
70
1
43
0.0
10
295.971
20
48.369999999999997
42
0.99999999999999989
10
295.971
20
47.869999999999997
10
297.07100000000003
20
47.869999999999997
42
0.99999999999999989
10
297.07100000000003
20
48.369999999999997
0
LWPOLYLINE
5
156
100
AcDbEntity
8
0
100
AcDbPolyline
90
4
70
1
43
0.0
10
294.27100000000002
20
50.02000000000001
10
293.17099999999994
20
50.020000000000017
42
-0.99999999999999989
10
293.17100000000005
20
50.520000000000003
10
294.27100000000002
20
50.52000000000001
42
-0.99999999999999989
0
ENDSEC
0
SECTION
2
OBJECTS
0
DICTIONARY
5
C
100
AcDbDictionary
3
ACAD_GROUP
350
D
3
ACAD_MLINESTYLE
350
17
0
DICTIONARY
5
D
100
AcDbDictionary
0
DICTIONARY
5
1A
330
C
100
AcDbDictionary
0
DICTIONARY
5
17
100
AcDbDictionary
0
ENDSEC
0
EOF
